<svg width="167" height="139" viewBox="0 0 167 139" fill="none" xmlns="http://www.w3.org/2000/svg">
<path d="M32.7493 55.4424C32.8664 55.4424 32.964 56.5257 33.0616 58.6189C33.1592 60.6937 33.2568 63.7783 33.3543 67.7627C33.3739 69.0847 33.4129 70.5169 33.4519 72.0408C33.5105 73.5648 33.569 75.1806 33.5495 76.9065C33.2568 78.6141 34.0765 80.4318 33.6276 82.323C33.5105 84.2142 33.6276 86.2156 33.7056 88.2904C33.8032 90.3652 33.53 92.5318 33.7837 94.7719C34.3497 97.0119 33.1592 99.3438 33.8618 101.749C34.0179 104.154 33.9594 106.652 33.9398 109.204C33.5105 111.774 33.9398 114.4 34.0179 117.117C33.5105 119.835 33.7252 122.626 34.0765 125.472C33.3739 128.318 33.491 131.255 34.135 134.248V135.185V135.295C34.135 135.46 34.1155 135.607 34.096 135.772C34.2716 135.772 34.4668 135.791 34.6424 135.809H34.8376H35.267H36.1062C37.2381 135.809 38.3701 135.772 39.5216 135.68C42.8394 135.644 46.2157 135.515 49.6701 135.625C53.1246 135.185 56.618 135.203 60.1895 135.57C63.7611 135.093 67.3911 135.276 71.0602 135.534C74.7489 135.791 78.4765 135.111 82.2627 135.497C86.0489 135.534 89.8937 135.387 93.7775 135.46C97.6613 135.662 101.604 135.882 105.585 135.442C109.566 135.332 113.606 135.166 117.666 135.423C121.745 134.909 125.843 135.148 129.981 135.423C131.503 135.387 133.045 135.423 134.586 135.46C135.348 135.46 136.128 135.497 136.889 135.515H137.182H137.241H137.358C137.358 135.515 137.514 135.515 137.592 135.515C137.592 135.405 137.592 135.295 137.553 135.185V135.148V135.093V134.707L137.475 133.918C137.553 129.952 137.241 125.949 137.475 121.928C137.631 117.907 137.787 113.904 137.475 109.938C137.124 105.972 137.612 102.043 137.475 98.132C137.982 94.2394 137.319 90.3652 137.475 86.5461C137.416 82.727 137.768 78.9262 137.494 75.1806C137.397 71.4349 137.299 67.726 137.514 64.0721C137.202 62.6216 137.182 61.171 137.241 59.7389C137.28 59.0228 137.319 58.3067 137.377 57.5906C137.397 57.2234 137.436 56.8745 137.455 56.5257C137.455 56.287 137.475 56.3421 137.494 56.287C137.494 56.2503 137.514 56.2136 137.533 56.1768C137.533 56.1585 137.494 56.1217 137.455 56.1034L137.416 56.0667L137.358 56.0116L137.241 55.9198C136.948 55.6811 136.636 55.4424 136.323 55.222C133.63 52.7066 130.508 50.7236 127.736 48.4468C124.809 46.3353 122.35 43.7831 119.403 41.8735C116.709 39.6702 113.801 37.7974 111.362 35.5022C108.473 33.7028 106.327 31.1506 103.614 29.3512C101.077 27.3499 98.559 25.422 96.1585 23.439C94.1092 21.0887 91.3965 19.5831 89.035 17.7837C88.3714 17.2513 87.7078 16.7372 87.0248 16.2414C86.1465 15.5804 86.166 15.6539 85.9318 15.4886C85.8538 15.5437 85.7952 15.5988 85.7172 15.6539L85.6 15.7273L85.5415 15.764L85.3854 15.8742C84.8975 16.2414 84.3705 16.5719 83.8436 16.8841C81.5992 18.5916 79.2767 20.0789 77.3251 21.8966C75.2953 23.6042 72.6411 24.5039 71.1969 26.6154C69.3233 28.2679 66.9423 29.2044 65.4395 31.0221C63.9172 32.8215 61.8094 33.7946 60.092 35.1166C58.3745 36.4203 56.7351 37.6688 55.1738 38.8807C48.1088 44.2605 42.5466 48.4652 38.7019 51.2928C34.8571 54.1204 32.7688 55.5709 32.6517 55.4607C32.5932 55.3873 33.1592 54.8548 34.2911 53.845C35.4231 52.8535 37.1405 51.4029 39.3849 49.5485C43.8737 45.8395 50.4703 40.4597 58.8429 33.7212C60.5213 32.3808 62.0046 30.6732 64.0928 29.5165C65.9274 28.0843 67.6253 26.3584 69.7331 24.9813C71.3335 23.035 73.6559 21.7681 75.7832 20.1523C77.852 18.4998 80.1354 16.9391 82.2042 15.0296C82.6335 14.6073 83.0824 14.2033 83.5508 13.8177C83.9216 13.524 84.2924 13.2302 84.6828 12.9364C85.0926 12.6243 85.5025 12.3121 85.9123 12C86.8491 12.7528 87.7664 13.524 88.7227 14.2951C89.3667 14.8276 90.0303 15.3417 90.7524 15.8191C92.8602 17.8939 95.2998 19.7117 97.954 21.4009C100.179 23.5675 102.931 25.22 105.468 27.2214C107.693 29.5899 110.523 31.371 113.294 33.2989C116.065 35.2452 118.583 37.5403 121.413 39.5967C124.087 41.8184 127.014 43.8382 129.785 46.1149C132.771 48.153 135.699 50.338 138.412 52.8351L139.349 53.5145L140.051 54.0469L140.91 54.7079C140.91 55.6811 140.91 56.6359 140.91 57.6273C140.91 58.3434 140.91 59.0595 140.91 59.7756C140.91 61.2078 140.89 62.6583 140.871 64.1088C141.085 67.7627 140.851 71.4716 140.89 75.2173C141.007 78.963 140.344 82.7453 140.91 86.5828C140.988 90.4019 140.812 94.2761 140.91 98.1687C140.832 102.061 140.754 106.009 140.91 109.975C140.344 113.941 140.695 117.944 140.91 121.965C141.066 125.986 140.988 129.988 140.91 133.954C140.91 134.579 140.91 135.203 140.91 135.827C140.91 136.819 140.91 137.81 140.91 138.783C138.744 138.783 136.597 138.783 134.469 138.783C132.928 138.783 131.405 138.765 129.883 138.747C125.746 138.894 121.628 138.526 117.568 138.747C113.509 138.967 109.469 138.508 105.487 138.728C101.506 138.875 97.5637 138.967 93.6799 138.71C89.7961 138.71 85.9513 138.233 82.1651 138.673C78.3789 138.783 74.6318 139.371 70.9627 138.637C67.274 138.82 63.644 138.288 60.092 138.6C56.5204 138.067 53.0075 138.581 49.5726 138.563C46.1377 138.453 42.7418 138.269 39.424 138.508C38.2725 138.6 37.1405 138.6 36.0086 138.581C34.3887 138.545 32.7884 138.508 31.188 138.471C31.188 137.663 31.2075 136.856 31.227 136.048C31.227 135.699 31.227 135.35 31.227 134.983V134.285C30.8757 131.292 31.6369 128.373 31.2856 125.508C31.3637 122.644 31.227 119.872 31.3441 117.154C30.5635 114.437 31.3441 111.811 31.4222 109.24C31.5393 106.67 30.9148 104.191 31.5003 101.786C30.9148 99.3805 31.4222 97.0487 31.5783 94.8086C31.754 92.5686 31.3246 90.4019 31.6564 88.3271C31.2466 86.2523 31.8906 84.2693 31.7345 82.3598C32.0077 80.4686 31.7345 78.6508 31.8321 76.9432C31.7345 75.2357 31.7735 73.6015 31.9296 72.0775C31.9687 70.5536 31.9882 69.1214 32.0272 67.7994C32.1248 63.815 32.2224 60.7304 32.32 58.6556C32.4175 56.5808 32.5346 55.4791 32.6322 55.4791L32.7493 55.4424Z" fill="#EA2728"/>
<path d="M33.0292 55.2618C33.2422 55.2618 33.4552 57.7686 33.6488 62.3583C33.6682 63.114 33.7069 63.9435 33.7456 64.8282C33.8037 65.713 33.8618 66.6346 33.8425 67.6299C33.552 68.6253 34.3653 69.6575 33.9393 70.7634C33.8037 71.8509 33.9393 72.9937 34.0167 74.1918C34.1135 75.3899 33.8425 76.6249 34.0942 77.9336C34.6364 79.2239 33.4745 80.5694 34.1716 81.9519C34.3265 83.3343 34.2878 84.772 34.2491 86.2466C33.8231 87.7212 34.2491 89.2511 34.3265 90.8178C33.8231 92.3846 34.0361 93.9882 34.3846 95.6287C33.6875 97.2691 33.8037 98.9649 34.4427 100.679C34.4621 102.393 34.191 104.163 34.5008 105.969C34.5395 107.776 34.6751 109.6 34.5589 111.462C35.0236 113.324 35.0043 115.241 34.5976 117.158C35.1011 119.093 34.9074 121.065 34.6364 123.056C34.3653 125.047 35.0817 127.074 34.6751 129.139C34.6751 130.171 34.6751 131.203 34.7138 132.235C34.7138 132.751 34.7138 133.268 34.7332 133.802V134.595V134.982V135.185V135.277C34.6751 135.406 34.617 135.572 34.5783 135.774C34.6557 135.811 34.7525 135.83 34.8687 135.83C34.9268 135.83 34.9849 135.83 35.043 135.83H35.4884C36.2823 135.811 37.0955 135.737 37.9088 135.572C40.1743 135.461 42.4786 135.295 44.7829 135.553C47.1065 135.037 49.4495 135.277 51.8118 135.553C52.3734 135.553 52.2185 135.553 52.3153 135.553C52.3734 135.553 52.4508 135.553 52.5283 135.59C52.5283 135.553 52.567 135.498 52.567 135.424C52.567 135.387 52.567 135.35 52.5864 135.314C52.5864 135.314 52.5864 135.277 52.5864 135.221V134.945C52.5864 134.189 52.5864 133.433 52.4702 132.678C52.5476 130.392 52.2378 128.088 52.4702 125.766C52.6251 123.443 52.78 121.139 52.4702 118.853C52.1216 116.568 52.6057 114.301 52.4702 112.052C52.9736 109.803 52.3153 107.573 52.4702 105.379C52.4315 103.168 52.7606 100.992 52.4895 98.8359C52.3927 96.6793 52.2959 94.5412 52.5283 92.4399C51.7537 90.3386 52.7219 88.2557 52.567 86.1913C52.8962 84.1453 52.5283 82.1178 52.6057 80.1086C52.4702 78.1179 52.9543 76.1457 52.6445 74.2103C52.7025 72.2749 52.3927 70.3763 52.7025 68.5147C52.3153 66.653 53.0317 64.8098 52.7606 63.0218C52.7606 61.2155 52.7413 59.4644 52.8187 57.7317C53.419 56.0175 52.9155 54.3218 52.8768 52.6813C52.9349 51.0408 52.5283 49.4372 52.9543 47.8704C52.993 46.3037 53.2641 44.7922 53.0317 43.3176C53.0317 43.1333 53.0317 42.949 53.0317 42.7647V42.6172C53.0317 42.6172 53.0511 42.5803 53.0705 42.5435L53.1092 42.4145C53.1673 42.2301 53.2641 42.0089 53.3222 41.7509C53.3803 41.5113 53.4384 41.2348 53.3996 41.032C53.3803 40.8477 53.2835 40.7555 53.0898 40.9583C53.0705 40.9214 53.0705 40.8477 53.0898 40.7555C52.8962 40.8846 52.7606 40.8108 52.5089 40.9214C52.2766 41.0136 51.928 41.2717 51.7731 41.6772C51.7344 41.7878 51.6956 41.8615 51.6569 41.9352C51.6569 41.9536 51.6569 41.9537 51.6182 41.9905L51.5407 42.0827C51.5407 42.0827 51.4246 42.1933 51.3665 42.2486C51.1147 42.4698 50.8436 42.6541 50.5726 42.82C50.011 43.1702 49.4301 43.4467 48.946 43.8153C47.9585 44.5526 47.029 45.2715 46.1189 45.9535C42.072 49.0132 38.8576 51.391 36.6308 52.9762C34.404 54.5614 33.1647 55.354 33.0679 55.2249C32.9517 55.0959 34.2491 53.861 36.747 51.6675C39.2642 49.4741 42.982 46.3406 47.7068 42.396C48.1715 42.0089 48.5975 41.5297 49.0622 41.0873C49.2946 40.8661 49.5269 40.645 49.798 40.4606C49.8561 40.4053 49.9336 40.3685 49.9916 40.3132L50.2434 40.1473C50.4564 39.9998 50.6887 39.8708 50.9017 39.7418C51.5988 39.1888 52.3153 38.5437 53.0705 37.8801C53.8256 37.2165 54.6583 36.5161 55.3941 36C55.3941 36.2949 55.3554 36.6083 55.336 36.9216C55.6071 37.5299 55.6458 38.8201 55.5877 40.0735C55.5684 40.7002 55.5296 41.3269 55.4909 41.9352L55.4522 42.396V42.6172L55.4328 42.7647C55.4328 42.949 55.4134 43.1333 55.3941 43.3176C55.4328 44.7922 55.2392 46.3221 55.4715 47.8704C55.8007 49.4372 55.3166 51.0408 55.5296 52.6813C55.1811 54.3218 55.2779 56.0175 55.5877 57.7317C55.2585 59.4644 55.6652 61.2155 55.6458 63.0218C55.123 64.8098 55.4909 66.653 55.7039 68.5147C55.8975 70.3763 55.6264 72.2749 55.7426 74.2103C55.6458 76.1457 55.8782 78.1179 55.7814 80.1086C56.0137 82.0993 56.1105 84.1269 55.8201 86.1913C55.9944 88.2373 55.8588 90.3202 55.8588 92.4399C56.0718 94.5412 55.8394 96.6793 55.8782 98.8359C55.9944 100.992 55.336 103.168 55.8975 105.379C55.975 107.591 55.8007 109.803 55.8975 112.052C55.8201 114.301 55.7426 116.568 55.8975 118.853C55.336 121.139 55.6845 123.443 55.8975 125.766C56.0524 128.088 55.975 130.392 55.8975 132.678C55.8975 133.433 55.9363 134.189 55.9363 134.945C55.9363 136.272 55.9363 137.581 55.9363 138.908C54.5227 138.908 53.1285 138.908 51.7344 138.889C49.372 139.037 47.029 138.668 44.7054 138.889C42.3818 139.111 40.0969 138.65 37.8313 138.871C37.0181 138.926 36.2242 138.982 35.4109 139H35.1011H34.5976H33.4358C32.6613 139 31.8867 139 31.1509 139C31.1703 137.802 31.2284 136.622 31.3058 135.516V135.037L31.3252 134.65L31.3833 133.857C31.422 133.323 31.4607 132.807 31.4995 132.291C31.5769 131.24 31.5769 130.208 31.3446 129.194C31.2284 127.13 30.6087 125.12 31.3833 123.111C31.1896 121.121 31.7512 119.148 31.422 117.213C32.0029 115.278 31.4607 113.379 31.4801 111.517C31.5963 109.656 31.7899 107.812 31.5382 106.025C31.2671 104.237 31.6931 102.467 31.5963 100.734C31.2671 99.0018 32.0223 97.3244 31.6544 95.684C31.7318 94.0435 31.5963 92.4399 31.7318 90.8731C30.9573 89.3064 31.7318 87.7949 31.8093 86.3019C31.9255 84.8273 31.3058 83.3896 31.8867 82.0072C31.3058 80.6247 31.8093 79.2792 31.9642 77.9889C32.1385 76.6986 31.7125 75.4452 32.0416 74.2471C31.635 73.049 32.274 71.9062 32.1191 70.8187C32.3902 69.7312 32.1191 68.6806 32.2159 67.6852C32.1191 66.6899 32.1578 65.7683 32.3127 64.8835C32.3515 63.9987 32.3708 63.1877 32.4096 62.4136C32.6032 57.8239 32.7968 55.3171 33.0292 55.3171V55.2618Z" fill="#EA2728"/>
<path d="M54.0504 38.8307C54.272 38.8307 54.4935 41.6966 54.695 46.9508C54.7353 47.8327 54.7554 48.7696 54.7957 49.78C54.8561 50.7904 54.9165 51.856 54.8964 52.995C54.5943 54.134 55.4402 55.3098 54.9971 56.5774C54.8561 57.8267 54.9971 59.1494 55.0777 60.5089C55.1784 61.8868 54.8964 63.3014 55.1582 64.7894C55.7222 66.2775 54.5137 67.8023 55.2388 69.4007C55.4 70.9806 55.3597 72.634 55.3194 74.3242C54.8762 76.0144 55.3194 77.7596 55.4 79.5417C54.8762 81.3237 55.0978 83.1608 55.4604 85.0531C54.7353 86.927 54.8561 88.856 55.5208 90.8401C55.541 92.8058 55.259 94.8267 55.5812 96.8843C55.6215 98.9418 55.7625 101.036 55.6417 103.167C56.1251 105.298 56.105 107.485 55.7021 109.689C56.2258 111.894 56.0244 114.153 55.7424 116.431C55.4604 118.709 56.2057 121.024 55.7827 123.376C55.7424 125.727 55.9035 128.116 55.823 130.522C55.7222 131.625 55.6215 132.745 55.5812 133.866C55.5812 134.141 55.5812 134.417 55.5812 134.711V135.133V135.336V135.391C55.6215 135.556 55.6618 135.703 55.7424 135.74C55.823 135.721 55.8834 135.685 55.964 135.648C56.0244 135.648 56.0848 135.611 56.1452 135.611H56.1855H56.2258H56.2862L56.7898 135.593C57.4746 135.574 58.1595 135.538 58.8443 135.538C60.214 135.519 61.5837 135.538 62.9736 135.666C63.2556 135.611 63.5577 135.574 63.8599 135.519L64.303 135.464H64.4239V135.446V135.354C64.4239 135.354 64.4239 135.354 64.444 135.354C64.444 135.354 64.444 135.354 64.4641 135.354C64.4641 135.354 64.4641 135.354 64.4641 135.336V135.06C64.5447 134.325 64.6253 133.59 64.7059 132.837C64.6051 130.265 65.008 127.675 64.7059 125.048C64.7864 122.439 64.4641 119.793 64.7059 117.148C64.867 114.484 65.0281 111.857 64.7059 109.248C64.3433 106.639 64.8469 104.031 64.7059 101.459C65.2296 98.8867 64.5447 96.3331 64.7059 93.8162C64.6454 91.2994 65.008 88.8008 64.726 86.3207C64.6857 85.2001 64.6454 84.0794 64.6253 82.9771V82.1504V81.0849C64.6253 80.0561 64.6656 79.0273 64.7059 78.0536C65.1691 78.0536 65.6324 78.0903 66.1158 78.1087C66.6597 78.0168 67.2438 77.9434 67.8683 77.9066L68.3517 77.8699H68.5934L68.7142 77.8515C68.8754 77.8515 69.0365 77.8331 69.1977 77.8331C69.8624 77.8148 70.5069 77.8515 71.1716 77.9066C71.8364 77.9617 72.4809 78.0352 73.1255 78.0903L73.6089 78.1271H73.8506H73.9513H73.9715C73.9715 78.1271 74.1125 78.1271 74.1528 78.1271C74.2333 78.1638 74.334 78.2006 74.4549 78.2189C74.4952 78.1271 74.4952 77.9801 74.4952 77.8515V77.7413V77.3738V76.6206C74.4146 75.6102 74.3743 74.6181 74.4146 73.6261C74.2736 71.348 74.7772 69.0883 74.4549 66.8838C74.5153 64.6792 74.193 62.493 74.5153 60.3619C74.1125 58.2309 74.8577 56.1365 74.5757 54.0789C74.5757 52.0213 74.5556 50.0005 74.6362 48.0347C75.2606 46.069 74.7369 44.14 74.6966 42.2477C74.757 40.3739 74.334 38.5367 74.757 36.7363C74.8175 34.9543 75.0793 33.209 74.8376 31.5189C74.7369 29.8287 75.744 28.1936 74.9182 26.5953C74.9182 26.5035 74.9182 26.4116 74.9182 26.3014V26.2095V26.1544C74.9182 26.0626 74.9182 25.9891 74.9585 25.8788C75.0189 25.6584 75.0592 25.4379 75.1196 25.2175C75.18 24.9786 75.2203 24.7031 75.2203 24.4826C75.2203 24.2622 75.18 24.0968 75.0793 24.1152L74.9585 24.2805C74.6765 24.648 74.5355 24.8317 74.3945 24.9419C74.2736 25.0705 74.1729 25.1072 74.0319 25.1624C73.911 25.1991 73.77 25.2358 73.6089 25.3093C73.5283 25.3461 73.4478 25.3828 73.3672 25.4196L73.3068 25.4563C73.3068 25.4563 73.2262 25.5114 73.206 25.5298L72.9845 25.6768C71.8162 26.5402 70.6882 27.3486 69.6207 28.1385C64.7864 31.6475 60.9593 34.3848 58.3206 36.2219C55.682 38.0591 54.2115 38.9776 54.1108 38.849C53.99 38.7204 55.5611 37.3242 58.5623 34.8257C61.5636 32.3272 66.0353 28.7632 71.6954 24.2805L71.8968 24.1152L72.1586 23.8947C72.3802 23.711 72.5816 23.5273 72.8032 23.3436C73.2463 22.9578 73.7096 22.5536 74.1729 22.1678C75.1196 21.3779 76.1872 20.5328 76.9727 20.1653L77.1943 20C77.1943 21.0655 77.2749 22.0576 77.3353 23.215C77.3554 23.7845 77.3756 24.3908 77.3756 24.997C77.3756 25.3093 77.3756 25.6033 77.3554 25.9156V26.136L77.3353 26.2463V26.3198L77.295 26.6137C77.8791 28.212 77.3957 29.8471 77.3756 31.5372C77.3957 33.2274 77.2144 34.9727 77.4561 36.7547C77.7986 38.5367 77.295 40.3739 77.5166 42.2661C77.154 44.14 77.2547 46.0874 77.577 48.0531C77.2346 50.0188 77.6576 52.0397 77.6374 54.0973C77.1137 56.1549 77.4763 58.2492 77.6979 60.3803C77.8993 62.5114 77.6173 64.6976 77.7381 66.9022C77.6374 69.1067 77.8791 71.3664 77.7784 73.6445C77.8993 74.6365 77.9597 75.6469 78 76.639V77.3922C78 77.7596 78 78.1271 78 78.5129C78 79.4866 77.9597 80.4419 77.9194 81.3604C77.2749 81.3421 76.6303 81.3053 76.0059 81.2686C75.4217 81.2686 74.8376 81.3053 74.2333 81.3053H73.1456C72.5011 81.3421 71.8565 81.3421 71.1918 81.3421C70.5472 81.3421 69.8825 81.3421 69.2178 81.3237H68.7344H68.6135H68.5934H68.5531C68.4927 81.3237 68.4524 81.3237 68.392 81.3237C68.3718 81.3421 68.3517 81.3604 68.3315 81.3604C68.3718 81.4523 68.3718 81.5258 68.3718 81.5809C68.3718 82.0585 68.3718 82.5362 68.3517 83.0139C68.3315 84.1161 68.2912 85.2368 68.3114 86.3575C68.4322 88.8192 67.7474 91.3177 68.3315 93.853C68.4121 96.3699 68.2308 98.9235 68.3315 101.495C68.251 104.067 68.1704 106.658 68.3315 109.285C67.7474 111.894 68.11 114.539 68.3315 117.185C68.4927 119.848 68.4121 122.476 68.3315 125.084C68.392 127.693 68.3517 130.302 68.3315 132.874C68.3718 133.609 68.3718 134.344 68.3718 135.097C68.3517 136.383 68.3114 137.65 68.2912 138.918C67.1834 138.918 66.0957 138.881 65.008 138.881H64.303H63.8599C63.5577 138.881 63.2757 138.9 62.9736 138.936C61.5837 139.047 60.214 138.991 58.8443 138.936C58.1595 138.9 57.4746 138.881 56.7898 138.863H56.2862H55.4201C54.7957 138.863 54.1713 138.881 53.5267 138.918C53.1037 138.918 52.6807 138.936 52.2577 138.955C52.2174 137.926 52.1973 136.86 52.1771 135.776V134.729L52.1369 133.884C52.1369 132.764 52.1973 131.643 52.3181 130.541C52.3181 128.134 52.8418 125.746 52.3584 123.394C52.2376 121.043 51.593 118.728 52.3987 116.45C52.1973 114.172 52.7814 111.912 52.439 109.707C53.0231 107.503 52.4793 105.317 52.4994 103.186C52.6203 101.055 52.8217 98.9602 52.5598 96.9026C52.2778 94.845 52.721 92.8242 52.6203 90.8584C52.2778 88.8927 53.0634 86.9637 52.6807 85.0715C52.7613 83.1976 52.6203 81.3604 52.7411 79.56C51.9354 77.778 52.7411 76.0327 52.8217 74.3426C52.9426 72.6524 52.298 71.0173 52.9023 69.419C52.298 67.8391 52.8217 66.2959 52.9828 64.8078C53.1641 63.3381 52.721 61.9051 53.0634 60.5273C52.6404 59.1678 53.3051 57.8451 53.144 56.5958C53.426 55.3465 53.144 54.1524 53.2447 53.0134C53.144 51.8744 53.1843 50.8088 53.3454 49.7984C53.3857 48.788 53.4058 47.851 53.4461 46.9692C53.6475 41.715 53.849 38.849 54.0907 38.849L54.0504 38.8307Z" fill="#EA2728"/>
<path d="M75.9145 22.5706C76.1277 22.5706 76.3408 24.3558 76.5346 27.6319C76.554 28.1656 76.5927 28.7546 76.6315 29.3804C76.6896 30.0061 76.7478 30.6687 76.7284 31.3681C76.4377 32.0675 77.2516 32.8037 76.8253 33.5951C76.709 34.3681 76.8253 35.1963 76.9028 36.0429C76.9997 36.8896 76.7284 37.773 76.9803 38.6933C77.5229 39.6135 76.3602 40.5706 77.0578 41.5644C77.2129 42.5583 77.1741 43.5706 77.1353 44.6196C76.709 45.6687 77.1353 46.7546 77.2128 47.8589C76.709 48.9632 76.9222 50.1043 77.271 51.2822C76.5734 52.4601 76.6702 53.6564 77.3291 54.8712C77.3485 56.1043 77.0772 57.3558 77.3873 58.6258C77.426 59.9141 77.5617 61.2025 77.4454 62.546C77.9105 63.8712 77.8911 65.2331 77.4841 66.5951C77.988 67.9755 77.7942 69.3742 77.5229 70.7914C77.2516 72.2086 77.9686 73.6442 77.5617 75.1166C77.5617 75.8528 77.5617 76.589 77.6004 77.3251C77.6004 77.638 77.6004 77.9693 77.6198 78.2822C77.6198 78.3374 77.6198 78.411 77.6004 78.4847C77.581 78.5399 77.5423 78.6135 77.5229 78.6687C77.5617 78.7055 77.6198 78.7423 77.6973 78.7791C77.7361 78.7791 77.7748 78.7975 77.833 78.8159H77.9105H77.9492H78.0267C78.7244 78.8159 79.422 78.7423 80.1196 78.5583C81.728 78.4478 83.3752 78.2822 85.0224 78.5399C86.6696 78.0245 88.3361 78.2638 90.0221 78.5399C90.8554 78.5031 91.708 78.5767 92.5607 78.6135C92.987 78.6319 93.4133 78.6503 93.8397 78.6503C94.0528 78.6503 94.266 78.6503 94.4791 78.6135L94.8086 78.5767H94.9636L95.0411 78.5399C95.0605 78.5399 95.0993 78.5399 95.0993 78.5399C95.1961 78.5767 95.3124 78.5399 95.3706 78.5215C95.3512 78.4294 95.3124 78.3558 95.3124 78.319C95.3124 78.319 95.3124 78.3006 95.3124 78.2822V77.9325C95.3318 77.6748 95.3706 77.4356 95.3899 77.1779C95.545 75.5215 95.7 73.8834 95.3899 72.2638C95.0411 70.6442 95.5256 69.0245 95.3899 67.4233C95.8938 65.8221 95.2349 64.2393 95.3899 62.6748C95.3318 61.1104 95.6806 59.546 95.4093 58.0184C95.3124 56.4908 95.2155 54.9632 95.4287 53.4724C94.6535 51.9816 95.6225 50.4908 95.4674 49.0368C95.7969 47.5828 95.4093 46.1288 95.5062 44.7117C95.3512 43.2945 95.855 41.8957 95.545 40.5153C95.6031 39.135 95.293 37.7914 95.6031 36.4479C95.2155 35.1227 95.9325 33.816 95.6612 32.5276C95.6612 31.2577 95.6419 29.9877 95.7194 28.773C96.3201 27.5399 95.8163 26.3436 95.7775 25.184C95.7969 24.7423 95.7775 24.319 95.7194 23.8773L95.6806 23.5644C95.6806 23.5644 95.6806 23.4908 95.6806 23.4724V23.4172C95.6806 23.4172 95.6612 23.2883 95.6806 23.2331C95.6225 23.1779 95.6031 23.0859 95.5837 22.9571L95.293 22.681L94.983 22.3865C94.7698 22.184 94.576 22 94.3629 21.7975C93.9559 21.411 93.5296 21.0798 93.0257 20.8221C92.115 20.2147 91.9018 18.8528 90.6034 18.8159C89.712 18.2822 89.4213 17.1227 88.3361 16.9202C87.8129 16.8098 87.4447 16.5153 87.1347 16.1656C87.0378 16.0552 87.0572 16.0368 87.0184 15.9816C86.999 15.9264 86.9603 15.8712 86.9409 15.816C86.8827 15.7055 86.7859 15.5951 86.7083 15.5215C86.6502 15.4663 86.5921 15.411 86.5339 15.3742C86.3789 15.4847 86.2239 15.5951 86.0688 15.7055C85.9913 15.7607 85.9138 15.816 85.8363 15.8712C85.7007 15.9632 85.565 16.0736 85.4294 16.1656C79.5964 20.454 76.147 22.8098 75.9532 22.5706C75.837 22.4417 76.709 21.5399 78.4143 19.9939C79.267 19.2209 80.3328 18.2822 81.5924 17.1963C82.2319 16.6442 82.9101 16.0736 83.6272 15.4479C83.9953 15.135 84.3829 14.8037 84.7705 14.4724C85.3518 13.9939 85.9526 13.4969 86.5533 13C86.7083 13.1104 86.8634 13.2393 87.0378 13.3681C87.2897 13.5706 87.561 13.7362 87.8517 13.9202C88.123 14.1043 88.4137 14.2699 88.7043 14.454C89.1113 14.6933 89.4795 14.9693 89.7314 15.3926C90.4678 15.9816 91.4561 16.3497 92.0956 17.1595C93.2583 17.3804 93.7815 18.3742 94.6148 19.0736C95.0411 19.4049 95.4481 19.773 95.8938 20.1227C96.1069 20.3067 96.3201 20.4724 96.5526 20.638C96.6689 20.7117 96.7852 20.8037 96.9015 20.8773L97.0952 20.9877L97.1921 21.0429C97.1921 21.0429 97.2503 21.0798 97.3084 21.1166C97.7347 21.3558 98.1611 21.6503 98.568 21.9632C98.568 22.3129 98.568 22.681 98.5486 23.0491V23.3252C98.5486 23.3252 98.5293 23.5092 98.5099 23.546V23.8589C98.4517 24.2822 98.4324 24.7239 98.5099 25.1656C98.1611 26.3252 98.258 27.5399 98.568 28.7546C98.2386 29.9877 98.6455 31.2393 98.6262 32.5092C98.1029 33.7975 98.4711 35.0859 98.6843 36.4294C98.8781 37.7546 98.6068 39.1166 98.7424 40.4969C98.6455 41.8773 98.8781 43.2761 98.7812 44.6933C99.0137 46.1104 99.1106 47.546 98.8199 49.0184C98.975 50.4724 98.8587 51.9632 98.8587 53.454C99.0719 54.9632 98.8393 56.4724 98.8781 58C98.975 59.5276 98.3355 61.092 98.8975 62.6564C98.975 64.2209 98.8006 65.8037 98.8975 67.4049C98.8199 69.0061 98.7424 70.6258 98.8975 72.2454C98.3355 73.865 98.6843 75.5215 98.8975 77.1595C98.9168 77.4172 98.9362 77.6748 98.9556 77.9141V78.319L98.9943 79.0552C98.9943 80.0307 98.9943 81.0061 98.9943 81.9632C97.7154 81.9448 96.4364 81.908 95.1768 81.8896C94.7311 81.8896 94.3047 81.8896 93.8784 81.908C93.4521 81.908 93.0258 81.908 92.5994 81.908C91.7468 81.908 90.8941 81.8896 90.0608 81.8712C88.3749 82.0368 86.7083 81.6503 85.0612 81.8712C83.414 82.092 81.7668 81.6319 80.1584 81.8528C79.4608 81.9264 78.7631 81.9816 78.0655 82H77.116H76.1277C75.4688 82 74.8293 81.9632 74.2092 81.9264C74.2286 81.5215 74.2673 81.1166 74.3061 80.7117C74.3061 80.0123 74.3448 79.3129 74.3836 78.6319C74.3836 78.227 74.4223 78.135 74.4417 77.9325L74.4999 77.3804C74.558 76.6442 74.5774 75.908 74.3448 75.1718C74.2285 73.7178 73.6084 72.2638 74.3836 70.8466C74.1898 69.4294 74.7518 68.0307 74.4223 66.6503C74.9843 65.2699 74.4417 63.9264 74.4805 62.6012C74.5967 61.2761 74.7905 59.9693 74.5386 58.681C74.2673 57.411 74.6936 56.1411 74.5967 54.9264C74.2673 53.6932 75.0231 52.4969 74.6549 51.3374C74.7324 50.1595 74.5967 49.0184 74.7324 47.9141C73.9573 46.7914 74.7324 45.7239 74.8099 44.6748C74.9262 43.6258 74.3061 42.6135 74.8874 41.6196C74.3061 40.6258 74.8099 39.6871 74.9649 38.7485C75.1393 37.8282 74.713 36.9448 75.0425 36.0982C74.6355 35.2515 75.275 34.4233 75.12 33.6503C75.3913 32.8773 75.12 32.1227 75.2169 31.4233C75.12 30.7239 75.1587 30.0613 75.3137 29.4356C75.3525 28.8098 75.3719 28.2209 75.4106 27.6871C75.6044 24.4294 75.8176 22.6258 76.0114 22.6258L75.9145 22.5706Z" fill="#EA2728"/>
<path d="M96.7997 22C97.0157 22 97.2317 24.8671 97.4281 30.1235C97.4674 31.0057 97.4871 31.943 97.5263 32.9538C97.5853 33.9647 97.6442 35.0306 97.6245 36.1517C97.3299 37.2912 98.1548 38.4675 97.7031 39.7356C97.5656 40.9854 97.7031 42.2903 97.7817 43.6687C97.8799 45.0471 97.6049 46.4623 97.8602 47.951C98.4298 49.4397 97.2317 50.9651 97.9388 52.5457C98.0959 54.1263 98.0566 55.7804 98.0173 57.4713C97.5853 59.1621 98.0173 60.9081 98.0959 62.6909C97.5853 64.4736 97.8013 66.3115 98.1548 68.2045C97.4478 70.0792 97.5656 72.009 98.2137 73.9939C98.2334 75.6664 97.9977 78.2394 98.2137 78.2394C98.2923 78.2394 98.3708 78.2026 98.4298 78.1843H98.6654L98.7833 78.1475C98.8422 78.1475 98.8029 78.1475 98.9993 78.1475C99.5492 78.1475 100.119 78.1107 100.669 78.1107C101.788 78.0924 102.927 78.0924 104.066 78.1475C104.086 78.1475 104.204 78.1475 104.263 78.1291H104.498L104.97 78.0556L105.932 77.9821C106.58 77.927 107.268 77.9086 107.955 77.8718C107.994 78.5518 108.014 79.2686 108.014 79.9854C108.014 80.353 108.014 80.7022 108.014 81.0697V81.5476L107.994 81.8417C107.955 82.6136 107.857 83.3671 107.719 84.139C108.23 86.3445 108.034 88.6051 107.759 90.8841C107.484 93.1631 108.21 95.4788 107.798 97.8313C107.759 100.184 107.916 102.573 107.837 104.981C107.621 107.388 107.386 109.833 107.857 112.314C107.975 114.777 108.151 117.276 107.877 119.812C108.426 122.33 108.171 124.885 107.877 127.458C107.955 130.031 107.582 132.623 107.877 135.251C107.877 135.361 107.877 135.453 107.877 135.545C107.955 135.545 108.053 135.526 108.112 135.508H108.171L108.525 135.49H109.33C110.39 135.453 111.471 135.471 112.531 135.545C113.493 135.6 114.436 135.637 115.379 135.673H116.086L116.165 135.692H116.184H116.223H116.302C116.42 135.692 116.538 135.692 116.636 135.692C116.636 135.582 116.616 135.471 116.577 135.379C116.577 135.324 116.538 135.306 116.518 135.232L116.439 134.589C116.086 131.979 116.577 129.369 116.439 126.796C116.95 124.223 116.282 121.669 116.439 119.151C116.381 116.633 116.734 114.133 116.459 111.652C116.361 109.189 116.263 106.745 116.479 104.319C115.693 101.911 116.675 99.5221 116.518 97.1696C116.852 94.8172 116.479 92.5014 116.557 90.2224C116.42 87.9435 116.911 85.6828 116.597 83.4774C116.656 81.2719 116.341 79.0848 116.656 76.9529C116.263 74.8209 116.989 72.7257 116.714 70.6673C116.714 68.6089 116.695 66.5872 116.773 64.6206C117.382 62.6541 116.872 60.7243 116.832 58.8313C116.891 56.9566 116.479 55.1188 116.891 53.3176C116.95 51.5349 117.205 49.7889 116.97 48.098C116.891 46.4072 117.854 44.7714 117.048 43.1725C116.97 42.4006 117.127 41.647 117.225 40.9119C117.284 40.5443 117.323 40.1767 117.323 39.8091C117.323 39.5886 117.323 39.5151 117.284 39.4232C117.264 39.3313 117.225 39.2394 117.166 39.1659C117.127 39.1659 117.088 39.1475 117.048 39.1291C116.754 39.0556 116.714 39.0924 116.322 38.8167C116.007 38.5961 115.732 38.3572 115.457 38.0999C114.927 37.5853 114.436 37.0339 113.886 36.5928C112.786 35.6923 111.726 34.8285 110.705 34.0198C106.168 30.3073 102.613 27.3666 100.237 25.3266C97.8602 23.2865 96.6229 22.1287 96.7407 22.0184C96.8586 21.8897 98.6065 23.0292 101.749 25.2898C104.891 27.532 109.428 30.8954 115.143 35.1777C115.713 35.6004 116.361 35.968 116.989 36.3907C117.304 36.5928 117.618 36.8134 117.893 37.0523C118.109 37.2361 118.659 37.714 119.032 38.1183L119.228 38.2837C119.228 38.5594 119.228 38.8351 119.228 39.1107C119.228 39.3864 119.248 39.7172 119.268 39.8459C119.287 40.2135 119.327 40.5811 119.346 40.9486C119.385 41.6838 119.405 42.4373 119.287 43.2092C119.857 44.7898 119.385 46.4439 119.366 48.1348C119.385 49.8256 119.209 51.5716 119.444 53.3544C119.778 55.1371 119.287 56.975 119.523 58.8681C119.169 60.7611 119.268 62.6725 119.582 64.6574C119.248 66.6239 119.66 68.6456 119.641 70.7041C119.11 72.7625 119.484 74.8577 119.7 76.9896C119.896 79.1216 119.621 81.3087 119.739 83.5141C119.641 85.7196 119.876 87.9802 119.778 90.2592C120.014 92.5382 120.112 94.8723 119.818 97.2064C119.994 99.5589 119.857 101.948 119.857 104.356C120.053 106.763 119.837 109.208 119.876 111.689C119.975 114.152 119.327 116.651 119.896 119.188C119.975 121.705 119.818 124.26 119.896 126.833C119.818 129.406 119.739 131.998 119.896 134.626C119.857 134.846 119.818 135.049 119.778 135.269C119.739 135.618 119.719 136.023 119.7 136.39C119.66 137.144 119.621 137.861 119.621 138.614C118.796 138.614 117.991 138.614 117.166 138.614H115.988L115.281 138.688C114.338 138.743 113.376 138.835 112.433 138.908C111.353 138.963 110.292 138.982 109.232 139C108.564 139 107.896 139 107.209 139C106.187 139 105.186 139 104.165 138.963C104.165 137.75 104.204 136.519 104.224 135.306C104.165 132.696 104.204 130.086 104.224 127.513C104.047 124.94 104.459 122.385 104.224 119.868C103.988 117.35 104.479 114.85 104.243 112.369C104.086 109.906 103.988 107.462 104.263 105.036C104.263 102.628 104.773 100.239 104.302 97.8864C104.184 95.5339 103.556 93.2182 104.341 90.9392C104.145 88.6602 104.715 86.3996 104.381 84.1942C104.577 83.4222 104.656 82.6503 104.636 81.8968V81.6027V81.5292V81.4925V81.4373C104.636 81.3638 104.636 81.3087 104.597 81.2535C104.577 81.1433 104.538 81.0514 104.518 80.9595L104.204 81.0146C104.204 81.0146 104.106 81.0146 104.066 81.0146H104.007H103.929C102.79 80.9595 101.651 80.886 100.531 80.8676C99.9617 80.8676 99.4118 80.8676 98.8618 80.8676C98.4298 80.8676 97.978 80.886 97.546 80.9043C97.0746 80.9043 96.5836 80.9411 96.0926 80.9779C95.7784 80.9962 95.4445 81.0146 95.1303 81.033C95.091 80.2427 95.091 79.3973 95.091 78.5518V77.927V77.6329V77.4675L95.1499 76.7691C95.2088 75.8501 95.2678 74.9312 95.2285 74.0123C94.8946 72.0457 95.6606 70.1159 95.2874 68.2229C95.366 66.3483 95.2285 64.5104 95.3463 62.7092C94.5607 60.9265 95.3463 59.1805 95.4249 57.4896C95.5427 55.7988 94.9142 54.1631 95.5034 52.5641C94.9142 50.9835 95.4249 49.4397 95.582 47.9694C95.7587 46.4991 95.3267 45.0655 95.6605 43.6871C95.2481 42.327 95.8962 41.0038 95.7391 39.754C96.0141 38.5042 95.7391 37.3096 95.8177 36.1701C95.7195 35.049 95.7587 33.9647 95.9159 32.9722C95.9551 31.9614 95.9748 31.024 96.0141 30.1418C96.2105 24.8855 96.4069 22.0184 96.6229 22.0184L96.7997 22Z" fill="#EA2728"/>
<path d="M117.973 39.0661C118.186 39.0661 118.399 41.56 118.593 46.1261C118.631 46.8963 118.651 47.7032 118.69 48.5834C118.748 49.4636 118.806 50.3805 118.787 51.3707C118.496 52.361 119.31 53.3879 118.864 54.4698C118.748 55.5518 118.864 56.707 118.942 57.8807C119.038 59.0726 118.767 60.3196 119.019 61.6032C119.581 62.8869 118.399 64.2255 119.097 65.6009C119.252 66.9762 119.213 68.4065 119.174 69.8736C118.748 71.3406 119.174 72.8626 119.252 74.4213C118.748 75.98 118.961 77.5754 119.31 79.2075C118.612 80.8396 118.709 82.5266 119.368 84.232C119.387 85.9558 119.116 87.6979 119.426 89.495C119.465 91.2738 119.6 93.1075 119.484 94.9596C119.949 96.8118 119.93 98.7189 119.542 100.626C120.046 102.551 119.852 104.514 119.581 106.494C119.31 108.475 120.027 110.492 119.62 112.546C119.581 114.581 119.736 116.653 119.659 118.762C119.445 120.853 119.232 122.98 119.678 125.125C119.794 127.271 119.969 129.453 119.697 131.635C119.93 132.552 120.007 133.487 120.007 134.423C120.007 134.661 120.007 134.881 120.007 135.119V135.303C120.007 135.303 120.007 135.321 120.007 135.339C120.007 135.339 120.007 135.339 119.988 135.339C119.949 135.339 119.91 135.413 119.852 135.486C119.852 135.523 119.852 135.559 119.891 135.615C119.949 135.615 119.988 135.615 120.027 135.615H120.879C121.48 135.651 122.061 135.67 122.662 135.706C123.864 135.743 125.046 135.761 126.247 135.633C128.65 135.706 131.073 135.413 133.514 135.633C134.464 135.688 135.394 135.743 136.343 135.78C136.654 135.78 136.964 135.78 137.274 135.798C137.39 135.798 137.487 135.798 137.564 135.761C137.545 135.614 137.487 135.486 137.409 135.394L137.371 135.358C137.371 135.358 137.371 135.358 137.351 135.266C137.351 135.119 137.332 134.973 137.312 134.844C137.312 134.569 137.293 134.276 137.293 134.001C137.293 133.432 137.293 132.864 137.351 132.314C137.409 131.177 137.506 130.058 137.429 128.94C137.933 126.702 137.274 124.483 137.429 122.283C137.371 120.082 137.719 117.919 137.448 115.773C137.351 113.628 137.254 111.5 137.467 109.41C136.692 107.319 137.661 105.247 137.506 103.193C137.836 101.158 137.448 99.1407 137.545 97.1418C137.39 95.1614 137.894 93.1992 137.584 91.2738C137.642 89.3483 137.332 87.4595 137.622 85.589C137.235 83.7369 137.952 81.9031 137.681 80.1244C137.681 78.3456 137.661 76.5852 137.739 74.8614C138.339 73.156 137.836 71.469 137.797 69.8369C137.855 68.2048 137.467 66.6094 137.874 65.0507C137.913 63.492 138.184 61.9883 137.952 60.503C137.913 59.7694 138.126 59.0359 138.262 58.3391C138.32 57.9907 138.359 57.6239 138.339 57.2755C138.339 57.1105 138.301 56.9271 138.243 56.7437C138.243 56.707 138.223 56.652 138.204 56.6153C138.204 56.597 138.165 56.5603 138.146 56.542C138.107 56.5053 138.068 56.4686 138.01 56.432C138.01 56.3586 137.991 56.2853 138.01 56.2119C137.913 56.1202 137.836 56.0102 137.739 55.8818C137.526 55.6618 137.332 55.4234 137.119 55.2217C136.692 54.7816 136.227 54.4148 135.626 54.2131C134.27 53.7547 133.611 52.5444 132.662 51.7742C131.712 50.9857 130.801 50.2338 129.949 49.5186C126.053 46.2912 123.03 43.7239 120.976 41.9268C118.942 40.1297 117.895 39.1211 118.011 39.0111C118.128 38.8827 119.639 39.873 122.352 41.8168C125.065 43.7606 128.98 46.6763 133.902 50.3805C134.89 51.114 136.169 51.6091 136.964 52.7094C137.429 53.0762 137.933 53.4062 138.436 53.7363C138.688 53.9014 138.94 54.0847 139.192 54.2681C139.58 54.5615 139.987 54.8916 140.355 55.2033C140.355 55.4784 140.316 55.7351 140.297 56.0102C140.335 56.1386 140.355 56.2669 140.394 56.4136L140.432 56.6153L140.471 56.7621C140.51 56.9454 140.549 57.1105 140.549 57.2938C140.587 57.6423 140.587 57.9907 140.549 58.3574C140.51 59.0726 140.374 59.7878 140.374 60.5213C140.394 61.9883 140.219 63.5104 140.452 65.0691C140.781 66.6278 140.297 68.2232 140.51 69.8552C140.161 71.4873 140.258 73.1744 140.568 74.8798C140.239 76.6035 140.646 78.3456 140.626 80.1427C140.103 81.9398 140.471 83.7553 140.684 85.6074C140.878 87.4595 140.607 89.3666 140.742 91.2921C140.646 93.2176 140.878 95.1797 140.781 97.1602C141.014 99.1407 141.111 101.158 140.82 103.212C140.975 105.265 140.859 107.338 140.859 109.428C141.072 111.519 140.839 113.646 140.878 115.791C140.994 117.937 140.335 120.119 140.897 122.301C140.975 124.502 140.801 126.721 140.897 128.958C140.859 130.076 140.82 131.195 140.82 132.332C140.82 132.901 140.82 133.469 140.82 134.019L140.859 134.863V135.284L140.917 136.018C140.781 136.972 140.704 137.833 140.665 138.695C139.812 138.659 138.998 138.64 138.184 138.64H137.584H137.041L136.343 138.677C135.413 138.732 134.464 138.824 133.514 138.915C131.073 139.062 128.65 138.989 126.247 138.915C125.046 138.934 123.844 138.952 122.662 138.952C121.209 138.952 119.755 138.934 118.302 138.915C117.604 138.934 116.887 138.952 116.209 138.952C116.209 138.053 116.209 137.155 116.248 136.275V135.615L116.267 135.303V135.119L116.306 134.423C116.345 133.487 116.364 132.552 116.267 131.635C116.035 129.435 116.519 127.271 116.287 125.125C116.132 122.98 116.035 120.853 116.306 118.762C116.306 116.672 116.81 114.599 116.345 112.546C116.229 110.492 115.608 108.493 116.384 106.494C116.19 104.514 116.752 102.551 116.422 100.626C116.984 98.7006 116.442 96.8118 116.461 94.9596C116.577 93.1075 116.771 91.2738 116.519 89.495C116.248 87.7162 116.674 85.9558 116.577 84.232C116.248 82.5083 117.004 80.8396 116.635 79.2075C116.713 77.5754 116.577 75.98 116.694 74.4213C115.918 72.8626 116.694 71.3589 116.771 69.8736C116.887 68.4065 116.267 66.9762 116.849 65.6009C116.267 64.2255 116.771 62.8869 116.926 61.6032C117.101 60.3196 116.674 59.0726 117.004 57.8807C116.597 56.6887 117.236 55.5518 117.081 54.4698C117.353 53.3879 117.081 52.3426 117.159 51.3707C117.062 50.3805 117.101 49.4636 117.256 48.5834C117.294 47.7032 117.314 46.8963 117.353 46.1261C117.546 41.56 117.74 39.0661 117.973 39.0661Z" fill="#EA2728"/>
<path d="M106.078 137.705C105.867 137.705 105.655 135.605 105.463 131.737C105.444 131.092 105.405 130.41 105.367 129.673C105.309 128.937 105.252 128.144 105.271 127.315C105.559 126.486 104.752 125.602 105.175 124.681C105.309 123.76 105.175 122.802 105.098 121.789C105.002 120.776 105.271 119.744 105.021 118.657C104.464 117.57 105.636 116.447 104.944 115.268C104.79 114.107 104.829 112.891 104.867 111.657C105.29 110.423 104.867 109.133 104.79 107.825C105.29 106.517 105.079 105.154 104.733 103.772C105.425 102.391 105.309 100.972 104.675 99.5168C104.656 98.0615 104.925 96.5877 104.617 95.0771C104.579 93.5665 104.444 92.0191 104.56 90.4532C104.098 88.8873 104.118 87.2846 104.502 85.6635C104.252 84.853 104.175 84.024 104.195 83.2134C104.195 82.7897 104.233 82.3844 104.291 81.9607C104.291 81.8133 104.31 81.8502 104.329 81.8133L104.367 81.7581C104.367 81.7581 104.425 81.666 104.464 81.5923C104.502 81.5186 104.521 81.4265 104.521 81.3712C104.444 81.3712 104.31 81.3712 104.214 81.4265C104.156 81.4265 104.118 81.4633 104.079 81.4817L104.022 81.5186H103.983H103.906L103.772 81.537C103.022 81.6107 102.253 81.6291 101.504 81.4817C99.6971 81.4449 97.8712 81.5923 96.0261 81.5186C94.1811 81.3159 92.2975 81.1133 90.414 81.537C88.5113 81.6475 86.6085 81.8133 84.6673 81.5554C82.7261 82.0712 80.785 81.8318 78.8053 81.5554C76.8449 81.6291 74.8461 81.2791 72.8472 81.5554C71.0214 81.4817 68.0615 81.7765 68.5036 81.5554C68.5036 81.5554 68.4267 81.6475 68.3883 81.7396V81.8133L68.369 81.8318V81.9239V82.1081V82.8265C68.3306 83.8029 68.369 84.7608 68.5228 85.7188C68.8688 87.6347 68.3883 89.5505 68.5228 91.4296C68.0231 93.327 68.6766 95.1876 68.5228 97.0483C68.5612 98.9089 68.2345 100.733 68.5036 102.556C68.5997 104.38 68.6958 106.167 68.4651 107.936C69.2339 109.704 68.2729 111.454 68.4267 113.186C68.1 114.918 68.4651 116.612 68.3883 118.289C68.5228 119.965 68.0423 121.623 68.3498 123.244C68.2922 124.865 68.5997 126.468 68.2922 128.034C68.6766 129.6 67.9654 131.147 68.2345 132.658V135.458V135.734V135.826C68.2345 135.937 68.1961 136.047 68.1768 136.176C68.1 136.287 68.0423 136.416 68.0039 136.526C68.1384 136.674 68.5228 136.655 68.7919 136.582C69.0994 136.545 69.4069 136.508 69.7144 136.471C70.0412 136.434 70.3487 136.416 70.6562 136.397C72.0977 136.453 73.5007 136.066 74.8845 136.453C76.2491 136.49 77.5945 136.747 78.8822 136.526C80.1699 136.434 81.4384 137.355 82.6493 136.6C83.8601 136.471 85.0325 137.19 86.1665 136.674C87.3004 136.195 88.3959 136.729 89.4338 136.747C90.4909 136.784 91.4903 136.803 92.4513 136.821C101.081 137.061 106.04 137.355 106.04 137.669C106.04 138 99.9277 138.332 89.453 138.59C88.4152 138.608 87.3196 139.013 86.1857 138.663C85.0517 138.663 83.8793 138.977 82.6685 138.737C81.4576 139.271 80.1891 138.829 78.9014 138.811C77.6137 138.829 76.2683 138.663 74.9037 138.884C73.5391 139.198 72.1169 138.737 70.6754 138.94C70.3679 138.866 70.0412 138.811 69.7336 138.792C69.5799 138.792 69.4069 138.755 69.2532 138.755H69.0225H68.7534C67.754 138.755 66.7354 138.811 65.5245 138.921C65.4861 138.645 65.4477 138.35 65.4092 138.074C65.4861 137.392 65.5245 136.784 65.5438 136.195V135.753V135.476C65.5438 135.292 65.5438 135.108 65.5053 134.924C65.4477 134.187 65.3516 133.432 65.3516 132.676C65.8705 131.166 65.5053 129.618 65.2939 128.052C65.1017 126.486 65.3708 124.884 65.2555 123.263C65.3516 121.642 65.1209 119.984 65.217 118.307C64.9864 116.631 64.8903 114.936 65.1786 113.204C65.0056 111.473 65.1401 109.723 65.1401 107.954C64.9287 106.186 65.1594 104.38 65.1209 102.575C65.0056 100.769 65.6591 98.9273 65.1017 97.0667C65.0248 95.2061 65.1978 93.3455 65.1017 91.448C65.1786 89.5505 65.2555 87.6531 65.1017 85.7372C65.3708 84.7793 65.4284 83.8213 65.39 82.845C65.2939 81.3159 65.1978 79.7869 65.1017 78.2395C69.6952 78.0921 70.7331 78.1658 72.9241 78.2395C74.923 78.1842 76.9218 78.2211 78.8822 78.2395C80.8618 78.0921 82.803 78.4605 84.7442 78.2395C86.6854 78.0184 88.5881 78.479 90.4909 78.2579C92.3744 78.1105 94.2579 78.0184 96.103 78.2763C97.9481 78.2763 99.774 78.7553 101.581 78.3132C102.349 78.2763 103.099 78.129 103.849 78.0553H103.983L104.06 78.0368H104.098H104.175H104.733C105.117 78 105.482 78 105.867 78C106.616 78 107.347 78.0368 108 78.1105C107.942 78.6632 107.846 79.2343 107.731 79.7501C107.75 80.1185 107.769 80.487 107.769 80.8738V81.4449C107.769 81.6291 107.769 81.8686 107.769 81.9239C107.75 82.3476 107.712 82.7529 107.673 83.1766C107.596 84.0055 107.539 84.8161 107.692 85.6267C107.135 87.2478 107.673 88.8505 107.635 90.4164C107.52 91.9822 107.327 93.5297 107.577 95.0403C107.846 96.5509 107.423 98.0246 107.52 99.48C107.846 100.935 107.097 102.354 107.462 103.735C107.385 105.117 107.52 106.462 107.404 107.788C108.173 109.096 107.404 110.386 107.327 111.62C107.212 112.854 107.827 114.07 107.25 115.231C107.827 116.391 107.327 117.533 107.174 118.62C107.001 119.707 107.423 120.757 107.097 121.752C107.5 122.765 106.866 123.723 107.02 124.644C106.751 125.565 107.02 126.431 106.924 127.279C107.02 128.108 106.981 128.9 106.828 129.637C106.789 130.374 106.77 131.074 106.732 131.7C106.539 135.55 106.347 137.669 106.136 137.669L106.078 137.705Z" fill="#EA2728"/>
<path d="M86.2569 0.00824911C86.2569 0.00824911 85.4986 0.860467 83.8652 2.30553C82.2319 3.73207 79.7818 5.78851 76.5929 8.45632C75.5234 9.3456 74.3956 10.2904 73.1706 11.2909C71.965 12.3098 70.6817 13.4214 69.2622 14.5145C67.6872 15.4223 66.7344 17.1823 64.8872 18.0901C63.2538 19.2202 61.7177 20.6097 60.0843 22.0177C58.4509 23.4257 56.5065 24.6299 54.8537 26.2788C53.3759 28.1314 50.7314 28.7984 49.2147 30.8548C47.348 32.5222 45.2868 34.1155 43.1868 35.7458C40.834 37.0983 38.9478 39.1176 36.77 40.9332C34.2228 42.3227 32.1033 44.2865 30.0033 46.3986C27.2227 47.7325 24.9087 49.7148 22.8865 52.1232C20.4559 54.087 17.792 55.8656 15.4391 58.1073C14.1947 59.1448 12.9308 60.1823 11.6474 61.2383C11.0057 61.757 10.3641 62.2757 9.70293 62.7945L9.23626 63.165L9.10015 63.2576C9.10015 63.2576 8.92514 63.3873 8.80848 63.4429C8.80848 63.6652 8.92514 63.6838 8.94459 63.7208C9.19737 63.6838 9.23626 63.6838 9.31404 63.7208C9.35293 63.7393 9.39182 63.7764 9.4696 63.8134C9.48904 63.8134 9.50849 63.832 9.54738 63.8505L9.97516 63.8876C10.2668 63.9246 10.5585 63.9431 10.8502 63.9802C12.5613 63.7579 14.2919 63.6652 16.0419 63.6838C16.9169 63.6838 17.792 63.7208 18.667 63.7579C19.1142 63.7764 19.542 63.7949 19.9892 63.832H20.3198L20.4948 63.869H20.5726C20.5726 63.869 20.5726 63.869 20.592 63.869L20.7281 63.9061H20.8059C20.8059 63.9061 20.8448 63.869 20.8837 63.8505L21.1559 63.6467L21.7004 63.2391C22.0504 62.9612 22.4198 62.6833 22.7698 62.3869C23.4698 61.8126 24.1504 61.2012 24.831 60.6084C26.2115 59.4041 27.5921 58.1999 29.1866 57.181C32.1033 54.9022 34.9617 52.4382 37.9951 50.1409C41.1062 47.9177 44.2757 45.6945 47.0369 42.9156C50.0119 40.396 52.987 37.8208 56.2926 35.542C59.0732 32.6704 62.3788 30.3361 65.7427 28.0203C68.8733 25.4266 72.3151 23.1663 75.3679 20.3689C77.0012 19.1091 78.5957 17.7751 80.1902 16.4598C80.9874 15.7928 81.8041 15.1444 82.6208 14.496L83.9236 13.4955C84.7014 12.8842 85.4792 12.2913 86.2375 11.7355C86.9958 12.3654 87.7347 12.9768 88.4931 13.6067L89.7376 14.6627C90.5348 15.3296 91.332 15.9966 92.1487 16.6636C93.7626 17.9789 95.4154 19.2387 97.1266 20.4059C100.588 22.7217 103.485 25.6304 106.752 28.0573C109.61 30.9475 113.188 32.9669 116.202 35.5791C119.352 38.0246 122.23 40.7295 125.458 42.9526C128.569 45.3055 131.66 47.6398 134.499 50.178C137.98 51.975 140.294 55.0319 143.308 57.218C144.65 58.4963 146.108 59.6265 147.566 60.738C148.286 61.2938 149.025 61.8311 149.744 62.3869C150.114 62.6648 150.464 62.9427 150.814 63.2206L151.339 63.6467L151.591 63.8505L151.65 63.9061L151.708 63.9431C151.708 63.9431 151.805 63.9431 151.844 63.9431H152.447C152.894 63.9431 153.322 63.9431 153.769 63.9617C154.644 63.9802 155.519 64.0172 156.394 64.0543C158.144 64.1099 159.875 64.1469 161.586 64.0172H162.461H162.889H162.986C163.122 64.0172 163.258 63.9987 163.375 63.9802C163.608 63.9617 163.783 63.9246 163.997 63.9246C163.803 63.7764 163.725 63.6652 163.628 63.4614C163.472 63.4059 163.375 63.3503 163.278 63.3132C163.239 63.2947 163.2 63.2577 163.161 63.2391L162.694 62.8686C162.053 62.3499 161.43 61.7941 160.808 61.2383C159.564 60.1452 158.358 59.0336 156.997 58.1258C154.45 56.1064 151.941 54.1426 149.55 52.1418C147.508 49.7704 144.786 48.2327 142.433 46.4171C140.158 44.5089 137.611 43.0082 135.666 40.9518C133.488 39.1547 131.505 37.2465 129.249 35.7644C127.11 34.1711 125.691 31.8553 123.221 30.8734C121.16 29.4283 119.76 27.3533 117.582 26.2973C115.444 25.2043 114.024 23.4072 112.352 22.0362C110.68 20.6653 109.085 19.3499 107.549 18.1086C100.666 12.4766 95.2793 8.03022 91.6431 4.93629C88.0653 1.84237 86.1792 0.137934 86.2764 0.00824911C86.3347 -0.0658568 86.9958 0.360252 88.2403 1.24952C89.4848 2.13879 91.2931 3.4727 93.646 5.23272C98.3321 8.75275 105.118 13.9587 113.674 20.5726C115.385 21.888 117.407 22.9811 119.002 24.704C120.83 26.1676 122.93 27.4274 124.738 29.1689C127.052 30.3176 128.802 32.2628 130.863 33.9488C132.963 35.5976 135.005 37.4317 137.358 39.025C139.788 40.5442 141.733 42.7118 144.222 44.3792C146.322 46.4727 148.772 48.3068 151.416 50.0112C153.633 52.1973 156.394 53.8647 158.922 55.9026C160.03 57.1069 161.294 58.1443 162.617 59.1448C163.278 59.645 163.958 60.1267 164.658 60.6084L165.203 60.9789L166.078 61.6273C166.68 62.072 167.283 62.5166 167.905 62.9612C169.617 64.2396 171.347 65.6105 173 66.9259C170.939 66.9259 168.878 66.8888 166.797 66.8888C165.786 66.8888 164.755 66.8888 163.725 66.8888H162.519L161.644 66.9259C159.933 66.8888 158.183 66.9259 156.453 66.9259C155.577 66.9259 154.702 66.9444 153.827 66.9629C153.38 66.9629 152.952 66.9629 152.505 66.9629C151.864 66.9629 151.222 66.9629 150.58 66.9629C150.405 66.8147 150.23 66.6851 150.055 66.5368C149.239 65.9625 148.422 65.3697 147.605 64.7768C146.866 64.2396 146.147 63.6838 145.427 63.128C143.988 61.9978 142.569 60.8122 141.208 59.5524C138.194 57.3662 135.336 54.9207 132.36 52.5493C129.249 50.3262 126.371 47.7695 123.28 45.3796C120.149 43.0267 117.485 40.0996 114.005 38.0431C110.835 35.6161 107.782 32.9854 104.535 30.5399C101.404 27.9647 98.2349 25.3525 94.9099 22.907C93.471 21.4249 91.8765 20.091 90.2237 18.8312C89.3876 18.2013 88.5514 17.5899 87.6959 16.9785L87.0542 16.5153L86.7431 16.293L86.5875 16.1819L86.5097 16.1263C86.5097 16.1263 86.5097 16.1263 86.4708 16.1263C86.3931 16.0892 86.3347 16.0892 86.2764 16.0707L86.1597 16.2189L85.0125 17.1638C84.1958 17.8307 83.3986 18.4792 82.5624 19.1091C80.9291 20.4059 79.2763 21.6657 77.6235 22.907C74.4345 25.5192 71.1873 28.0388 67.9983 30.5399C64.926 33.1892 61.5038 35.3938 58.5287 38.0431C55.5537 40.6924 52.1508 42.7859 49.2536 45.3796C46.298 47.9363 43.3424 50.4003 40.1729 52.5493C37.1978 54.9207 33.9117 56.8845 31.3255 59.5524C29.906 60.7566 28.5838 62.0349 27.2032 63.2206C26.5227 63.8134 25.8032 64.3878 25.0643 64.925C24.6948 65.1844 24.3059 65.4438 23.9171 65.6846C23.7226 65.7958 23.5282 65.9255 23.3143 66.0366L23.0032 66.2034L22.4781 66.5368C22.3031 66.6851 22.1281 66.8333 21.9337 66.9815C21.292 66.9815 20.6503 66.9815 20.0087 67C19.5614 67 19.1336 67 18.6864 67C17.8114 66.9815 16.9364 66.9259 16.0614 66.9074C14.3113 66.8333 12.5808 66.7962 10.8696 66.9444C10.5779 66.9074 10.2863 66.8703 9.99461 66.8333L9.56682 66.7962L8.82792 66.7592C7.85568 66.7221 6.92233 66.7036 5.96954 66.7036C4.0834 66.7036 2.10003 66.7406 0 66.7962C1.41947 65.592 2.93616 64.3137 4.56952 63.0168C5.17231 62.5536 5.75565 62.109 6.35844 61.6458L7.23345 60.9789L7.7779 60.5898C8.45847 60.0896 9.11959 59.5894 9.78071 59.0892C11.103 58.0888 12.3669 57.0513 13.5724 55.9582C15.9447 53.735 18.7059 52.0677 21.0781 50.0668C23.3143 47.8992 26.1726 46.5468 28.2727 44.4347C30.6449 42.6377 32.8422 40.748 35.1172 39.0806C36.8284 36.7648 39.4923 35.6161 41.6118 34.0043C43.7701 32.4296 45.4035 30.3546 47.7369 29.2245C49.3314 27.2422 51.5481 26.0935 53.4731 24.7596C55.4176 23.4257 56.9148 21.7213 58.8009 20.6282C60.2204 18.9794 62.2621 18.1642 63.7205 16.8303C65.4511 15.7928 66.7539 14.4404 68.1928 13.3844C69.5345 12.1987 70.8761 11.1797 72.2178 10.309C73.4817 9.3456 74.6679 8.4378 75.7762 7.60411C79.0818 5.0845 81.6485 3.17628 83.418 1.89795C85.1875 0.619623 86.1403 -0.0102774 86.1986 0.0638286L86.2569 0.00824911Z" fill="#EA2728"/>
<path d="M74.5512 106.574C74.5512 106.768 74.3655 106.98 74.1386 107.174C74.0974 107.21 74.0561 107.245 74.0355 107.298C73.9942 107.369 73.9736 107.422 73.9117 107.422C73.7467 107.192 74.0148 107.881 73.788 107.545C73.6848 107.475 73.6848 107.581 73.6848 107.687C73.6848 107.793 73.4785 107.598 73.5817 107.828C73.7261 108.04 73.6229 107.952 73.4992 107.863C73.3754 107.793 73.2723 107.722 73.4992 107.969C73.5611 108.093 73.4992 108.11 73.4373 108.128C73.0454 107.916 73.3342 108.216 73.3754 108.287C72.901 108.075 73.0454 108.287 73.3754 108.446C72.6535 108.216 72.736 108.375 73.3754 108.605C73.3754 108.658 73.066 108.658 73.3754 108.764C73.4167 108.835 73.5611 108.87 73.4167 108.923C73.9117 108.976 73.9117 108.976 73.4992 109.064C74.0149 109.047 73.8292 109.064 73.5817 109.205C73.4579 109.276 73.5817 109.258 73.6642 109.258C73.7673 109.258 73.8498 109.223 73.6642 109.329C73.6642 109.382 73.8086 109.364 73.788 109.435C73.7261 109.506 73.6642 109.594 73.6642 109.647C73.6642 109.7 73.7467 109.682 73.9323 109.541C74.0767 109.488 74.1799 109.4 74.0767 109.612C74.4274 109.205 74.283 109.4 74.2418 109.665C74.283 109.629 74.283 109.7 74.3036 109.753C74.3036 109.806 74.3449 109.841 74.4068 109.7C74.4687 109.771 74.5305 109.488 74.5718 109.7C74.5924 109.771 74.6337 109.841 74.6749 109.859C74.7162 109.859 74.7368 109.824 74.7368 109.682C74.7368 109.523 74.7368 109.541 74.7987 109.594C74.8399 109.647 74.9018 109.7 74.9018 109.647C75.0256 109.859 75.0462 109.788 75.0462 109.718C75.0462 109.647 74.9843 109.523 75.0462 109.594C75.0462 109.541 75.335 109.735 75.1906 109.523C75.1906 109.435 75.1081 109.347 75.335 109.435C75.0256 109.205 75.0668 109.223 75.1906 109.276C75.3144 109.329 75.5206 109.382 75.4588 109.329C75.6238 109.382 75.6238 109.329 75.6031 109.294C75.5619 109.258 75.5 109.205 75.5619 109.205C75.5 109.17 75.5825 109.17 75.665 109.152C75.7475 109.152 75.7888 109.117 75.6444 109.064C75.7269 109.011 75.3969 108.958 75.7063 108.923C75.5 108.905 75.5825 108.888 75.7063 108.852C75.8094 108.817 75.9126 108.782 75.7682 108.764C75.7682 108.711 75.7063 108.676 75.7682 108.605C76.0569 108.499 76.0776 108.446 75.9951 108.446C75.9332 108.446 75.7888 108.446 75.7475 108.446C75.7888 108.358 75.3762 108.517 75.7269 108.287C75.7269 108.234 75.9126 108.022 75.6857 108.128C75.6238 108.128 75.7888 107.987 75.8507 107.881C75.9332 107.775 75.9126 107.722 75.6031 107.969C75.5206 108.005 75.6031 107.881 75.665 107.793C75.7063 107.704 75.7063 107.634 75.5206 107.828C75.17 108.163 75.4794 107.74 75.4175 107.687C75.3762 107.634 75.335 107.598 75.3144 107.545C74.9843 107.157 74.5718 106.892 74.5512 106.592C74.5512 106.433 74.6955 106.274 75.005 106.15C75.3144 106.026 75.83 105.974 76.4489 106.15C76.5726 106.185 76.9439 105.921 76.8201 106.274C76.9233 106.344 77.2739 106.203 77.2121 106.45C77.7277 106.168 77.5215 106.574 77.604 106.698C77.7484 106.786 77.6865 106.998 77.9753 107.015C78.3672 106.998 78.0165 107.351 78.3053 107.404C78.0578 107.687 78.2022 107.775 78.5941 107.846C78.3053 108.093 78.7797 108.163 78.8004 108.358C78.3053 108.605 78.6972 108.711 78.9241 108.923C79.1304 109.117 78.8416 109.311 78.9241 109.523C78.8004 109.7 78.9654 109.947 78.8004 110.141C78.9654 110.406 78.9447 110.671 78.5528 110.742C78.5941 111.007 78.3259 111.148 78.1609 111.325C78.1609 111.466 78.0784 111.554 77.9546 111.625C77.8515 111.696 77.7277 111.749 77.6452 111.837C77.5834 111.961 77.3771 111.943 77.2327 111.943C77.0677 111.943 76.9645 111.996 77.0058 112.278C76.7995 112.473 76.4695 112.437 76.2632 112.632C75.9538 112.667 75.6857 112.667 75.4381 112.861C75.2319 112.632 75.1081 112.596 74.9637 112.649C74.8399 112.702 74.6956 112.826 74.5512 112.932C74.2624 113.073 73.9323 112.967 73.6642 112.861C73.3754 112.861 73.0866 112.755 72.8391 112.649C72.6741 112.685 72.5709 112.561 72.4678 112.473C72.3647 112.367 72.2822 112.278 72.0965 112.314C71.9109 112.349 71.8284 112.225 71.7665 112.102C71.7046 111.978 71.6427 111.872 71.4571 111.872C71.127 111.837 70.8795 111.678 70.9414 111.342C70.8589 111.254 70.8795 111.095 70.8795 110.972C70.8795 110.848 70.8383 110.76 70.5495 110.76C70.4463 110.689 70.1988 110.654 70.0751 110.583C69.9513 110.495 69.9513 110.371 70.302 110.159C70.1576 110.088 70.2195 109.947 70.2813 109.841C70.3226 109.735 70.3845 109.629 70.1988 109.541C70.4876 109.4 70.4876 109.311 70.4051 109.223C70.3226 109.135 70.1782 109.047 70.1988 108.941C70.3226 108.746 70.5495 108.587 70.3226 108.375C70.1988 108.269 70.2401 108.181 70.3432 108.093C70.4257 108.022 70.5495 107.952 70.5289 107.863C70.3845 107.74 70.5289 107.669 70.6732 107.634C70.797 107.581 70.9414 107.563 70.8176 107.422C70.9827 107.316 70.962 107.121 71.1477 107.033C70.8589 106.768 70.9208 106.698 71.0652 106.698C71.2096 106.698 71.4365 106.751 71.519 106.715C71.6221 106.698 71.5602 106.574 71.5602 106.468C71.5602 106.362 71.6221 106.309 71.8903 106.468C71.6015 105.991 72.0759 106.238 72.2822 106.291C72.4884 106.344 72.3647 105.974 72.6535 106.168C72.5503 105.779 72.9835 106.256 73.0041 106.097C73.2104 106.274 73.2104 106.044 73.3342 106.079C73.396 105.974 73.4992 105.974 73.6229 106.079C73.7054 106.079 73.788 106.079 73.8705 106.115C74.3449 106.238 74.5305 106.415 74.5305 106.609L74.5512 106.574Z" fill="#EA2728"/>
<path d="M33.9808 18.3422C34.1909 18.3422 34.401 19.1252 34.573 20.5419C34.6112 20.7843 34.6303 21.0266 34.6685 21.3063C34.7258 21.5859 34.7831 21.8655 34.764 22.1638C34.4775 22.4807 35.2798 22.7976 34.8404 23.1332C34.7258 23.4687 34.8404 23.8229 34.9168 24.1957C35.0123 24.5686 34.7449 24.9601 34.9932 25.3515C35.5472 25.743 34.3819 26.1718 35.0696 26.6005C35.2224 27.0293 35.1842 27.4767 35.146 27.9241C34.7258 28.3901 35.146 28.8562 35.2224 29.3409C34.7258 29.8256 34.9359 30.3289 35.2798 30.8322C34.5921 31.3356 34.6876 31.8575 35.3371 32.3981C35.3562 32.9387 35.0887 33.4794 35.3944 34.0386C35.4326 34.5979 35.5663 35.1571 35.4517 35.735C35.9101 36.3129 35.891 36.9095 35.4899 37.506C35.5472 37.5806 35.6045 37.6551 35.6427 37.7111C35.6809 37.7111 35.7191 37.7111 35.7382 37.7297C35.7955 37.7297 35.7955 37.7297 35.7955 37.767C35.7955 37.8043 35.6618 37.8788 35.5281 38.0652C35.3944 38.2517 35.4899 38.2517 35.5854 38.1957C35.6809 38.1398 35.7573 38.0093 35.5663 38.4194C35.5663 38.4754 35.5663 38.5126 35.5663 38.5313C35.6618 38.4194 35.7382 38.3076 35.7764 38.3449C35.7764 38.4754 35.8146 38.5686 35.891 38.5499C35.9674 38.5126 36.063 38.3635 36.0439 38.0839C36.0439 38.028 36.0439 37.9907 36.063 37.9534V37.8975C36.063 37.8975 36.063 37.8975 36.063 37.8788L36.1585 37.7856C36.4068 37.5619 36.6933 37.3569 37.0372 37.245C37.2473 36.4061 37.935 36.1451 38.6609 35.9214C39.1576 35.4181 39.9408 35.2317 40.3037 34.5606C40.915 34.1691 41.2779 33.4794 41.9847 33.1997C42.6533 32.8642 43.3028 32.51 43.6657 31.8389C44.0096 31.1305 44.8692 31.0373 45.3277 30.4967C46.1873 30.4221 46.321 29.49 46.9705 29.1917C47.2188 28.9494 47.5435 28.8003 47.8301 28.6138C47.9829 28.5206 48.1166 28.4274 48.2503 28.3156C48.2885 28.2969 48.3076 28.2597 48.3459 28.2224L48.3841 28.1851C48.3841 28.1851 48.4223 28.1478 48.4032 28.1478C48.4032 28.1292 48.4032 28.0919 48.4032 28.0732C48.4032 28.036 48.4032 27.9987 48.4032 27.98C48.365 27.8495 48.365 28.0546 48.5178 27.4208C47.7537 26.7683 48.7088 26.1158 48.556 25.482C48.8807 24.8482 48.4987 24.2144 48.5942 23.5992C48.4605 22.984 48.938 22.3688 48.6324 21.7723C48.6706 21.474 48.5942 21.1758 48.5751 20.8775C48.5751 20.7284 48.556 20.5792 48.5751 20.4301C48.5751 20.3369 48.5942 20.3369 48.6133 20.3182C48.6133 20.2996 48.6515 20.281 48.6897 20.2623C48.5178 20.225 48.5751 20.1877 48.6515 20.0759C48.7279 19.964 48.8425 19.7776 48.7852 19.759C48.7661 19.759 48.7279 19.7776 48.7088 19.7963C48.5369 19.7963 48.3841 19.8149 48.2312 19.7403C48.2312 19.6658 48.193 19.6099 48.1548 19.5726C48.0784 19.5353 48.0211 19.498 47.9447 19.4794C47.811 19.4421 47.6773 19.4421 47.5436 19.4794C47.2761 19.5353 47.0087 19.6658 46.7412 19.6844C46.2255 19.6285 45.7097 20.02 45.213 19.6285C44.7164 19.5912 44.2388 19.3302 43.7613 19.5539C43.3028 19.6285 42.8443 18.715 42.405 19.4794C41.9656 19.6099 41.5454 18.8828 41.1251 19.4048C40.724 19.8708 40.3228 19.3489 39.9408 19.3302C39.5587 19.3116 39.1958 19.2743 38.8519 19.2557C35.7382 19.0133 33.9426 18.715 33.9426 18.3981C33.9426 18.0439 36.1585 17.727 39.9408 17.466C40.3228 17.4474 40.724 17.0373 41.1251 17.3915C41.5454 17.3915 41.9656 17.0746 42.405 17.3169C42.8443 16.7763 43.3028 17.2237 43.7613 17.2423C44.2388 17.2237 44.7164 17.3915 45.213 17.1678C45.7097 16.8509 46.2255 17.3169 46.7412 17.0932C47.0087 17.261 47.257 17.3169 47.5436 17.2983C47.6773 17.2983 47.811 17.261 47.9447 17.2237C48.0211 17.2051 48.0784 17.1678 48.1548 17.1491C48.2694 17.1119 48.3841 17.0746 48.4987 17.0559C48.938 17.2237 49.3774 17.2051 49.8741 17.1491C50.3707 17.0932 50.9247 17 51.4214 17C51.4596 17.0373 51.4978 17.0746 51.536 17.0932C51.3449 17.7084 51.3449 18.0999 51.4022 18.4913C51.4596 18.8828 51.5933 19.2743 51.6888 19.7403C51.7079 19.8708 51.727 19.9827 51.7461 20.1132C51.7461 20.2437 51.7461 20.3928 51.7652 20.4487C51.7652 20.5979 51.7652 20.747 51.7461 20.8961C51.7079 21.1944 51.6888 21.4927 51.7461 21.7909C51.6506 22.3875 51.8798 23.0027 51.7843 23.6178C52.0135 24.233 52.109 24.8668 51.8225 25.5007C51.9944 26.1345 51.8607 26.7869 51.8607 27.4394C51.9944 27.7004 51.9371 28.8003 51.8989 29.5832C51.5742 29.8256 51.2685 30.0679 50.9629 30.3289C50.8483 30.4407 50.7337 30.534 50.5999 30.6272C50.5617 30.6644 50.5426 30.6644 50.5235 30.6831L50.4662 30.7204L50.3516 30.7763C50.1988 30.8509 50.0269 30.9254 49.8741 31C49.5493 31.1678 49.2819 31.3542 49.1864 31.783C48.6897 32.2676 48.0402 32.6032 47.5627 33.1252C46.9705 33.5166 46.3783 33.9081 45.9198 34.486C45.0029 34.5233 44.6591 35.2317 44.2388 35.8655C43.7804 36.4434 43.1691 36.8349 42.5578 37.2264C42.042 37.7297 41.469 38.1398 40.8959 38.5686C40.4565 39.1278 39.6542 39.277 39.2531 39.8735C39.062 40.1718 38.7564 40.3582 38.4508 40.526L38.3362 40.5819L38.1451 40.7124C38.0114 40.8056 37.8968 40.8988 37.7631 40.992C37.5147 41.1784 37.2855 41.3835 37.0563 41.6445C36.5978 42.1105 36.0821 42.6138 35.5854 43.024C35.0887 43.4341 34.573 43.7883 34.1718 43.9561C33.8662 44.217 33.5796 44.3662 33.3122 44.5153C33.0448 44.6644 32.8155 44.7763 32.529 45C32.529 44.6085 32.4908 44.3475 32.338 44.2357C32.2807 43.751 32.1087 43.4341 32.0323 42.8935C31.9559 42.3715 31.9941 41.6445 32.3762 40.7497C32.2807 40.265 32.3762 39.6125 32.4526 39.0533C32.4908 38.7736 32.529 38.494 32.529 38.233C32.529 38.1025 32.529 37.972 32.5099 37.8415C32.5099 37.7483 32.4717 37.6924 32.4335 37.6178C32.9875 37.0213 32.4717 36.4248 32.4717 35.8469C32.5863 35.269 32.7773 34.6911 32.529 34.1505C32.2616 33.5912 32.6818 33.0506 32.5863 32.51C32.2616 31.9694 33.0066 31.4474 32.6436 30.9441C32.72 30.4407 32.5863 29.9374 32.7009 29.4527C31.9368 28.968 32.7009 28.502 32.7773 28.036C32.8919 27.5699 32.2807 27.1411 32.8537 26.7124C32.2807 26.2836 32.7773 25.8735 32.9301 25.4634C33.1021 25.0719 32.6818 24.6804 33.0066 24.3076C32.6054 23.9348 33.2358 23.5806 33.083 23.245C33.3504 22.9095 33.083 22.5925 33.1594 22.2756C33.0639 21.9774 33.1021 21.6791 33.2549 21.4181C33.2931 21.1385 33.3122 20.8961 33.3504 20.6538C33.5414 19.237 33.7325 18.4541 33.9617 18.4541L33.9808 18.3422Z" fill="#EA2728"/>
<path d="M33.3224 18.3743C33.1053 18.3743 32.8882 17.8338 32.6908 16.8301C32.671 16.6564 32.6316 16.4827 32.5921 16.2897C32.5329 16.0967 32.4737 15.8843 32.4934 15.672C32.7895 15.4597 31.9605 15.2281 32.3947 14.9965C32.5329 14.7648 32.3947 14.5139 32.3158 14.2437C32.2171 13.9735 32.4934 13.7032 32.2368 13.433C31.6842 13.1435 32.8684 12.854 32.1579 12.5644C32.0789 12.41 32.0592 12.2556 32.0395 12.1012C32.0395 12.0433 32.0395 11.9082 32.0395 11.7731C32.0395 11.638 32.0395 11.5221 32.0592 11.387C32.2763 11.1747 32.2763 10.9624 32.2171 10.6729C32.1579 10.4026 32.0197 10.0552 32 9.76569C32.3158 9.64988 32.3553 9.41826 32.2566 9.01292C32.4145 8.95501 32.5132 8.8392 32.6513 8.68479C33.8158 9.37965 33.9934 9.26384 34.5066 8.62688C34.6645 8.62688 34.8224 8.62688 35 8.64619C35.1579 8.64619 35.3552 8.68479 35.4342 8.70409C35.6316 8.72339 35.8289 8.70409 36.0263 8.56898C36.421 8.53038 36.8355 8.39526 37.25 8.51107C37.6644 8.04783 38.0987 8.06713 38.5131 8.47247C38.9473 7.97063 39.3815 8.16364 39.8355 8.43387C40.2894 8.70409 40.7236 7.98993 41.1973 8.39526C41.6513 8.43387 42.1249 8.27945 42.5789 8.35666C43.0526 8.56898 43.5263 8.8006 43.9999 8.33736C44.4736 8.22155 44.967 8.04783 45.4605 8.31806C45.9539 7.77761 46.4473 8.02853 46.9407 8.31806C47.4933 8.24085 47.7499 8.60758 48.8946 8.31806C49.3486 8.35666 49.842 8.31806 50.3552 8.26015C50.8683 8.22155 51.3815 8.20225 51.7565 8.31806C51.6775 8.87781 51.5986 9.37965 51.5788 9.84289C51.5591 10.3061 51.5788 10.7115 51.7565 11.1168C51.9341 11.5221 51.8946 12.1591 51.8354 12.2942C51.7762 12.5451 51.6775 12.7768 51.7565 13.0277C51.2433 13.5102 51.9144 13.9928 51.7565 14.4753C51.8157 14.9579 51.4604 15.4404 51.7367 15.9036C51.7565 16.0194 51.7762 16.1353 51.7959 16.2511V16.3283C51.7959 16.3283 51.8157 16.3862 51.8157 16.4441V16.7722C51.8354 17.2162 51.8157 17.6601 51.6973 18.0268C52.0131 18.5094 52.0328 18.934 51.9736 19.2235C51.9144 19.5324 51.7367 19.7447 51.6775 19.9956C51.4802 19.957 51.3223 19.957 51.2038 19.9956C50.6512 19.8412 50.296 19.8412 49.921 19.8798C49.546 19.9184 49.171 19.9956 48.7565 19.957C47.8091 20.0921 47.5723 19.6096 47.0986 19.9184C46.6644 19.8605 46.2499 20.1693 45.8354 19.8605C45.421 20.2465 45.0065 19.5324 44.6118 19.8026C44.217 19.8026 43.8223 19.8219 43.4276 19.7447C43.0526 19.1463 42.6776 19.6482 42.3026 19.6868C41.9276 19.6289 41.5723 20.0342 41.2368 19.6289C40.8815 19.5903 40.546 19.32 40.2105 19.5517C39.875 19.6289 39.5592 18.6831 39.2434 19.4745C38.9276 19.6096 38.6315 18.8568 38.3552 19.3972C38.0592 19.8798 37.7829 19.3393 37.5263 19.32C37.25 19.3007 37.0131 19.2621 36.7566 19.2428C34.5658 18.9919 33.3026 18.6831 33.3026 18.355C33.3026 17.9882 34.8618 17.6601 37.5263 17.3899C37.8026 17.3706 38.0789 16.9459 38.3552 17.3127C38.6513 17.3127 38.9473 16.9845 39.2434 17.2355C39.5592 16.6757 39.875 17.1389 40.2105 17.1582C40.546 17.1389 40.8815 17.3127 41.2368 17.081C41.5921 16.7529 41.9473 17.2355 42.3026 17.0038C42.6776 17.3513 43.0526 17.2548 43.4276 16.9459C43.8026 17.2741 44.1973 16.8687 44.6118 16.888C45.0065 17.4092 45.421 17.0424 45.8354 16.8301C46.2499 16.6371 46.6841 16.9073 47.0986 16.7722C47.4933 16.8687 48.1249 16.6371 48.0657 16.7336C48.1052 16.502 47.967 16.4055 48.2828 16.695C48.2828 16.6564 48.2631 16.6371 48.2631 16.6371C48.2039 16.5406 48.3025 16.5599 48.3025 16.502C48.2039 16.4248 48.2039 16.4248 48.2236 16.3862H48.2433C48.2433 16.3862 48.2433 16.3476 48.2433 16.309V16.2318C48.2631 16.116 48.2631 16.0001 48.2433 15.8843C48.1249 15.4018 48.796 14.9385 48.2236 14.456C48.1446 13.9735 48.3223 13.4909 48.2236 13.0084C48.3025 12.5644 48.3815 11.831 48.2236 11.9661C48.5196 11.8696 48.5591 11.7345 48.5196 11.6959C48.4802 11.6573 48.342 11.6959 48.2236 11.7924C48.0065 11.9468 48.1052 11.8696 48.046 11.7924C48.1841 11.8503 47.4341 11.8117 46.9802 11.7924C46.4868 11.9661 45.9736 11.5607 45.4999 11.7924C45.0065 12.024 44.5131 11.5414 44.0394 11.7731C43.5657 11.9275 43.092 12.024 42.6184 11.7538C42.1447 11.7538 41.6907 11.2519 41.2368 11.7152C40.7828 11.831 40.3289 12.4486 39.875 11.6766C39.421 11.8696 38.9868 11.3098 38.5526 11.638C38.1184 11.0782 37.7039 11.6187 37.2894 11.5993C36.875 11.4835 36.4605 11.2905 36.0658 11.5414C35.8684 11.6766 35.671 11.638 35.4737 11.58C35.3355 11.5414 35.375 11.5221 35.3158 11.5028C35.2763 11.4835 35.2566 11.4642 35.2368 11.5028C35.2368 11.6573 35.1579 11.5607 35.0395 11.4642C34.921 11.3677 34.7631 11.2712 34.8618 11.4642C34.7829 11.4256 34.7434 11.4449 34.7039 11.4449C34.7039 11.5221 34.7237 11.5994 34.6645 11.6187C35.0592 11.9468 35.0592 11.9275 34.9408 11.9275C34.8421 11.9275 34.625 11.9082 34.5855 11.9661C34.5658 11.9854 34.5855 12.024 34.6052 12.0626C34.6447 12.1012 34.6842 12.1012 34.7237 12.1977C34.7829 12.3521 34.8026 12.5065 34.5066 12.6609C35.0987 12.9698 34.5855 13.2593 34.4276 13.5295C34.25 13.819 34.6842 14.0893 34.3487 14.3402C34.7631 14.6104 34.1118 14.842 34.2697 15.093C33.9934 15.3246 34.2697 15.5562 34.171 15.7685C34.2697 15.9808 34.2302 16.1932 34.0724 16.3862C34.0329 16.5792 34.0131 16.7529 33.9737 16.9266C33.7763 17.9303 33.5592 18.4708 33.3421 18.4708L33.3224 18.3743Z" fill="#EA2728"/>
</svg>
