<svg width="92" height="142" viewBox="0 0 92 142" fill="none" xmlns="http://www.w3.org/2000/svg">
<path d="M2.61554 89.5437C2.89987 89.5437 3.18421 91.0655 3.44269 93.8386C3.46854 94.2952 3.52024 94.8025 3.57194 95.3267C3.64948 95.8508 3.72703 96.4258 3.70118 97.0176C3.31345 97.6094 4.39909 98.252 3.80457 98.9114C3.75288 99.0805 3.75288 99.2496 3.72703 99.4018C3.72703 99.5033 3.72703 99.6047 3.72703 99.7062C3.75288 99.9091 3.83042 100.078 3.88212 100.23C3.88212 100.247 3.88212 100.281 3.88212 100.298C4.16645 100.281 4.39909 100.315 4.68343 100.332C4.81267 100.332 4.96776 100.332 5.12285 100.332C5.1487 100.332 5.2004 100.332 5.22625 100.332H5.27794L5.38134 100.315C5.51058 100.315 5.66567 100.281 5.79492 100.247C6.98395 99.7569 8.22468 100.788 9.51711 100.18C10.8095 100.044 12.1278 100.078 13.4978 100.112C14.8678 100.484 16.2636 100.112 17.7111 100.044C19.1586 100.484 20.632 100.298 22.1571 99.9936C23.6821 100.602 25.2331 100.518 26.8357 99.9429C28.4383 99.926 30.0668 100.163 31.7211 99.8922C33.3754 99.8584 35.0814 99.74 36.8132 99.8414C38.5451 99.4356 40.3028 99.4525 42.0863 99.7907C43.8699 99.3511 45.6793 99.5202 47.5404 99.7569C49.3757 99.9936 51.2626 99.368 53.1496 99.7231C55.0365 99.7569 56.9752 99.6216 58.9138 99.6893C60.8524 99.8753 62.8428 100.061 64.8331 99.6724C66.8235 99.5709 68.8397 99.4187 70.8817 99.6554C72.9237 99.182 74.9658 99.4018 77.0595 99.6554C79.1274 99.5709 81.2211 99.9091 83.3407 99.6554C84.4005 99.6893 85.4603 99.6554 86.5201 99.6047H86.9078H87.0112C87.0112 99.6047 87.0629 99.6047 87.0888 99.6047C87.1405 99.6047 87.218 99.6216 87.3731 99.6724C87.3731 99.6724 87.4765 99.6216 87.5282 99.554C87.5282 99.5202 87.5799 99.4864 87.5799 99.4525V99.4187C87.5799 99.4187 87.5799 99.4187 87.5799 99.4018V99.3342V99.0805C87.6057 98.3872 87.5799 97.694 87.3473 97.0007C86.882 95.6141 87.5282 94.2445 87.3473 92.8917C87.4765 92.6212 87.554 92.3337 87.5799 92.0632C87.5799 91.9279 87.5799 91.7926 87.5799 91.6404V91.4375V91.3361V91.3022C87.5023 91.167 87.3731 91.1162 87.3214 91.0824C87.2439 91.0824 87.218 91.0824 87.1922 91.0655C87.0888 91.0655 87.0371 91.0655 86.9595 91.0486C86.4684 91.0317 85.9773 90.9979 85.4862 90.981C84.4781 90.9471 83.47 90.9302 82.4877 91.0486C80.4974 91.1332 78.5329 91.2177 76.5684 91.0317C74.6297 91.7081 72.6911 90.8626 70.8042 90.9979C68.9172 90.7104 67.0303 91.0317 65.195 90.9641C63.3598 91.0824 61.5245 90.6597 59.741 90.9302C57.9574 90.8795 56.1997 91.1501 54.4678 90.8964C52.736 91.2346 51.0558 90.609 49.3757 90.8457C47.7213 90.8457 46.0929 90.8626 44.4903 90.795C42.8877 90.2708 41.3367 90.7104 39.8117 90.7442C38.2866 90.6935 36.8132 91.0317 35.3657 90.6935C33.9182 90.6428 32.5224 90.423 31.1524 90.6259C29.7824 90.7104 28.4641 89.865 27.1717 90.5582C25.8793 90.6766 24.6385 90.0171 23.4495 90.4906C22.2605 90.9133 21.0973 90.4399 19.9858 90.423C18.8743 90.3891 17.8145 90.3722 16.8064 90.3553C7.70771 90.1355 2.48629 89.865 2.48629 89.5775C2.48629 89.2562 8.9226 88.9688 19.9858 88.732C21.0973 88.7151 22.2346 88.3431 23.4495 88.6644C24.6385 88.6644 25.8793 88.3769 27.1717 88.5968C28.4641 88.1064 29.7824 88.5122 31.1524 88.5291C32.5224 88.5122 33.9182 88.6644 35.3657 88.4615C36.8132 88.174 38.2866 88.5968 39.8117 88.4108C41.3367 88.7151 42.8877 88.6306 44.4903 88.36C46.0929 88.6475 47.6955 88.2924 49.3757 88.3093C51.03 88.7659 52.736 88.4446 54.4678 88.2586C56.1997 88.0895 57.9574 88.3262 59.741 88.2248C61.5245 88.3093 63.3339 88.1064 65.195 88.1909C67.0303 87.988 68.9172 87.9035 70.8042 88.1571C72.6911 88.0049 74.6297 88.1233 76.5684 88.1233C78.507 87.9373 80.4974 88.1402 82.4877 88.1064C83.4958 88.0557 84.4781 88.174 85.4862 88.2417C85.7446 88.2586 86.0031 88.2755 86.2358 88.2755H86.6235H87.0629C87.9676 88.2586 88.8465 88.2078 89.9063 88.0726C90.6042 88.0726 91.3021 88.0726 92 88.0726C92 89.104 91.9742 90.1524 91.9483 91.1839V91.6912V92.1139C91.9483 92.4014 91.9483 92.6719 92 92.9424C91.8966 94.2952 91.7932 95.6818 92 97.0514C91.6381 97.7447 91.5606 98.438 91.6123 99.1313C91.664 99.6723 91.7157 100.197 91.7674 100.738C91.8449 101.414 91.9225 102.09 92 102.784C91.0436 102.817 90.0355 102.834 89.0274 102.851H87.5023H86.4426C85.3828 102.851 84.323 102.801 83.2632 102.767C81.1436 102.817 79.0499 102.784 76.982 102.767C74.9141 102.919 72.8462 102.564 70.8042 102.767C68.7621 102.97 66.7459 102.547 64.7556 102.75C62.7652 102.885 60.8007 102.97 58.8362 102.733C56.8976 102.733 54.959 102.293 53.072 102.699C51.1851 102.801 49.2981 103.342 47.4629 102.665C45.6276 102.834 43.7924 102.344 42.0088 102.631C40.2253 102.141 38.4675 102.615 36.7357 102.598C35.0038 102.496 33.3237 102.327 31.6435 102.547C29.9892 102.784 28.3607 102.412 26.7581 102.496C25.1555 102.784 23.6046 102.124 22.0795 102.445C20.5545 102.378 19.0811 102.496 17.6336 102.378C16.1861 103.054 14.7902 102.378 13.4203 102.31C12.0503 102.209 10.732 102.75 9.43957 102.243C8.14714 102.75 6.90641 102.31 5.71737 102.175C5.58813 102.175 5.43304 102.141 5.30379 102.141H5.2004H5.04531H4.73512C4.32155 102.141 3.90797 102.175 3.49439 102.192C2.66723 102.226 1.76253 102.259 1.11632 102.175C1.11632 102.073 1.16802 101.972 1.19386 101.871C0.90953 101.482 0.987076 100.839 1.11632 100.298C1.16802 100.027 1.24556 99.7569 1.29726 99.5202C1.34896 99.3342 1.34896 99.182 1.29726 99.0129C1.65914 98.3534 1.29726 97.7278 1.4265 97.119C1.29726 96.5272 1.34896 95.9523 1.55574 95.4281C1.60744 94.9039 1.63329 94.3966 1.68499 93.9401C1.94347 91.167 2.22781 89.6451 2.48629 89.6451L2.61554 89.5437Z" fill="#EA2728"/>
<path d="M16.9607 140.766C16.6756 140.798 16.0019 139.015 15.0432 135.759C14.8877 135.219 14.7063 134.63 14.525 134.008C14.3177 133.386 14.0845 132.715 13.9549 132.012C14.1881 131.276 12.9443 130.621 13.3589 129.787C13.3589 128.985 13.0221 128.183 12.7111 127.332C12.4002 126.482 12.5557 125.565 12.0115 124.665C11.0787 123.798 12.4002 122.702 11.286 121.802C10.8714 120.82 10.69 119.789 10.5086 118.742C10.8455 117.63 10.0422 116.599 9.70537 115.486C10.1459 114.308 9.57582 113.179 8.85029 112.05C9.52399 110.79 9.1094 109.596 7.96929 108.434C7.65835 107.207 7.762 105.914 7.06238 104.655C7.01056 104.426 6.93282 104.196 6.881 103.967L6.82917 103.787L6.75144 103.493L6.59597 102.888C6.38868 102.069 6.18138 101.235 6 100.401C7.06238 100.401 8.17658 100.401 9.23896 100.45C9.65355 100.401 10.12 100.351 10.6123 100.319L11.3378 100.27C11.4933 100.27 11.5192 100.27 11.5969 100.253H11.8042C12.3484 100.188 12.8925 100.155 13.4367 100.155C14.525 100.155 15.6132 100.237 16.7274 100.401C18.9299 99.9751 21.1843 100.139 23.4645 100.368C25.7447 100.597 28.0768 99.9915 30.4088 100.335C32.7668 100.368 35.1507 100.237 37.5605 100.302C39.9702 100.482 42.406 100.662 44.8935 100.286C47.3551 100.188 49.8685 100.041 52.382 100.27C54.8954 99.8115 57.4607 100.024 60.0259 100.27C62.5912 100.188 65.1823 100.515 67.7994 100.27C70.4165 100.335 73.0595 100.073 75.7025 100.27C77.024 100.335 78.3455 100.401 79.667 100.417C80.0038 100.417 80.3148 100.417 80.6516 100.417H81.999C83.1651 100.368 84.3829 100.335 85.6785 100.27C86.119 100.253 86.5595 100.221 87 100.204C86.9223 100.875 86.7927 101.595 86.6113 102.315L86.3522 103.378L86.2226 103.886L86.119 104.164C85.8858 104.9 85.6267 105.636 85.5489 106.373C84.5384 107.927 85.0566 109.596 84.4866 111.15C84.2015 112.737 83.4242 114.259 83.4242 115.83C83.2169 117.384 83.0096 118.922 82.3877 120.411C83.0873 122.015 81.4808 123.389 81.3772 124.878C80.6257 126.318 80.8071 127.807 80.3666 129.23C80.237 130.67 79.2783 132.028 79.382 133.452C78.9933 134.826 79.1228 136.217 78.4232 137.526C78.5269 138.131 78.3455 138.704 78.1123 139.26L78.0345 139.473L77.905 139.817C77.8273 140.062 77.7495 140.291 77.6718 140.536C77.5163 141.011 77.3868 141.469 77.309 141.944C76.8685 141.944 76.4539 141.96 76.0394 141.993H71.8676C70.857 141.993 69.8724 141.993 68.8877 141.944C66.9184 141.436 64.975 141.862 63.1094 141.894C61.2178 141.845 59.3781 142.189 57.6161 141.845C55.8282 141.796 54.0921 141.584 52.382 141.78C50.6977 141.862 49.0653 141.044 47.4587 141.715C45.8781 141.829 44.3493 141.191 42.8465 141.649C41.3695 142.058 39.9443 141.6 38.571 141.584C37.1977 141.551 35.8762 141.535 34.6324 141.518C23.3608 141.305 16.9088 141.044 16.9088 140.766C16.9088 140.455 24.8896 140.176 38.571 139.947C39.9443 139.931 41.3695 139.571 42.8465 139.882C44.3234 139.882 45.8522 139.604 47.4587 139.817C49.0393 139.342 50.6977 139.735 52.382 139.751C54.0662 139.735 55.8023 139.882 57.6161 139.686C59.404 139.407 61.2438 139.817 63.1094 139.637C65.001 139.931 66.9184 139.849 68.8877 139.587C69.8724 139.735 70.857 139.718 71.8676 139.669C72.3599 139.637 72.8522 139.62 73.3704 139.587C73.5259 139.555 73.6296 139.538 73.785 139.538C73.9146 139.587 74.0441 139.637 74.1737 139.669C74.2774 139.637 74.3292 139.538 74.381 139.424C74.381 139.375 74.381 139.309 74.381 139.26V139.162V138.949C74.4328 138.377 74.381 137.771 74.381 137.182C74.4328 135.824 75.0806 134.499 75.2102 133.092C75.6507 131.717 75.6507 130.294 76.0653 128.87C76.0653 127.414 76.2466 125.958 76.9722 124.518C77.0758 123.029 77.5681 121.557 77.905 120.051C77.9568 118.513 78.6046 117.024 78.8637 115.47C79.071 113.916 80.263 112.427 79.8743 110.774C80.1334 109.187 80.6775 107.616 80.9107 105.996C81.118 105.26 81.3253 104.524 81.5067 103.787L81.5845 103.444C81.5845 103.444 81.5845 103.378 81.5845 103.362C81.5845 103.297 81.5844 103.247 81.5326 103.231C81.4808 103.231 81.4549 103.247 81.4031 103.264C81.5067 103.149 81.4031 103.084 81.2217 103.035C81.1699 103.035 81.144 103.035 81.0921 103.018H80.5998C80.263 103.018 79.952 103.018 79.6152 103.018C78.2937 103.051 76.9722 103.166 75.6507 103.264C73.0077 103.395 70.3647 103.329 67.7476 103.264C65.1305 103.313 62.5393 103.28 59.9741 103.264C57.4088 103.411 54.8436 103.068 52.3301 103.264C49.8167 103.46 47.3033 103.051 44.8417 103.247C42.38 103.378 39.9184 103.46 37.5086 103.231C35.0988 103.231 32.715 102.806 30.357 103.198C27.999 103.297 25.6929 103.82 23.4127 103.166C21.1324 103.329 18.8781 102.855 16.6756 103.133C15.5614 102.888 14.4731 102.888 13.3848 102.937C12.8407 102.969 12.2965 103.002 11.7524 103.035H11.5451L11.3896 103.051H11.286C11.286 103.051 11.1564 103.084 11.1046 103.084C10.9491 103.051 10.7418 103.018 10.5086 103.002C10.4827 103.1 10.4568 103.247 10.5086 103.395C10.5086 103.427 10.5086 103.477 10.5345 103.509V103.558L10.6123 103.722C10.69 103.951 10.7678 104.18 10.8973 104.409C11.5451 105.669 11.2601 106.978 11.6488 108.189C12.3484 109.383 11.6228 110.676 12.3484 111.805C12.5038 112.983 12.9184 114.128 13.0221 115.257C14.2917 116.288 13.4885 117.466 13.644 118.53C13.7217 119.593 14.7841 120.558 14.214 121.606C15.1987 122.538 14.7322 123.553 14.7322 124.485C14.7322 125.434 15.4578 126.269 15.2246 127.169C15.9501 127.97 15.3023 128.87 15.6392 129.639C15.4578 130.457 15.9501 131.177 16.0278 131.881C16.3129 132.568 16.3906 133.255 16.3388 133.893C16.4424 134.532 16.5202 135.121 16.5979 135.661C17.0643 138.966 17.1939 140.782 16.9088 140.815L16.9607 140.766Z" fill="#EA2728"/>
<path d="M46.9613 24C47.2782 24 47.5951 24.7184 47.8832 26.0409C47.9408 26.2532 47.9696 26.4981 48.0272 26.743C48.1137 26.9879 48.2001 27.2655 48.1713 27.5431C47.7392 27.8206 48.9491 28.1309 48.2865 28.4411C48.1137 28.7513 48.2865 29.0779 48.4018 29.4207C48.5458 29.7636 48.1425 30.1228 48.517 30.482C49.3524 30.8576 47.5951 31.2331 48.6322 31.6413C48.8627 32.0332 48.8051 32.4413 48.7475 32.8659C48.1137 33.2904 48.7475 33.7312 48.8627 34.1721C48.1137 34.6129 48.4306 35.0701 48.9491 35.5436C47.912 36.0171 48.0849 36.4906 49.0355 36.9967C49.0644 37.4866 48.661 37.9927 49.122 38.5152C49.1796 39.0377 49.3812 39.5602 49.2084 40.0826C49.8998 40.6215 49.871 41.1603 49.2948 41.7154C50.0438 42.2705 49.7558 42.8257 49.3524 43.4135C48.9491 43.9849 50.015 44.5727 49.4101 45.1605C49.3524 45.7483 49.5829 46.3524 49.4677 46.9565C49.1508 47.5607 48.8339 48.1811 49.4965 48.7852C49.6693 49.4057 49.9286 50.0261 49.5253 50.6629C50.3319 51.2997 49.9574 51.9364 49.5253 52.5732C49.6693 53.21 49.0932 53.8631 49.5253 54.5162C49.4101 55.1693 49.871 55.8387 49.5253 56.4918C49.2948 57.1613 49.0644 57.8144 49.5253 58.4675C50.0438 59.1206 49.3236 59.7737 49.5253 60.4105C48.7763 61.0636 49.7558 61.7003 49.5253 62.3208C49.6117 62.9576 49.0932 63.578 49.4965 64.1984C49.6405 64.8189 49.7846 65.423 49.4677 66.0271C50.62 66.6312 49.1796 67.2354 49.4101 67.8232C48.9203 68.4109 49.4965 68.9987 49.3524 69.5702C49.5541 70.1417 48.8339 70.7131 49.2948 71.2519C49.2084 71.8071 49.6693 72.3459 49.2084 72.8847C49.7846 73.4235 48.7186 73.946 49.122 74.4685C49.122 74.9746 49.1508 75.4808 49.0355 75.9869C48.1425 76.4768 48.8915 76.9666 48.9491 77.4401C48.8627 77.9136 49.4677 78.3708 48.8627 78.8116C48.8051 79.2524 48.4018 79.6933 48.7475 80.1178C48.8915 80.5423 47.4511 80.9505 48.6322 81.3424C48.8339 81.7342 47.7104 82.1261 48.517 82.5016C49.2372 82.8772 48.4306 83.2364 48.4018 83.5793C48.3729 83.9221 48.3153 84.2487 48.2865 84.5589C47.912 87.3836 47.4511 89 46.9613 89C46.414 89 45.9242 87.008 45.5209 83.5793C45.4633 83.2364 44.8583 82.8772 45.4057 82.5016C45.4057 82.1261 44.9447 81.7506 45.2904 81.3424C44.455 80.9342 45.1464 80.526 45.1752 80.1178C45.1464 79.6933 45.4057 79.2524 45.06 78.8116C44.5702 78.3708 45.2904 77.8973 44.9736 77.4401C45.4921 76.9666 45.3481 76.4768 44.8871 75.9869C45.3769 75.4971 44.7719 74.991 44.8007 74.4685C45.5497 73.946 45.0312 73.4235 44.7143 72.8847C44.4262 72.3459 44.8295 71.8071 44.6279 71.2519C44.7719 70.6968 44.4262 70.1417 44.5702 69.5702C44.2245 68.9987 44.0805 68.4109 44.5126 67.8232C44.2533 67.2354 44.455 66.6312 44.455 66.0271C44.1381 65.423 44.4838 64.8189 44.4262 64.1984C44.2533 63.578 45.2328 62.9576 44.3974 62.3208C44.2821 61.684 44.5414 61.0472 44.3974 60.4105C44.5126 59.7737 44.6279 59.1206 44.3974 58.4675C45.2328 57.8144 44.7143 57.1449 44.3974 56.4918C44.1669 55.8224 44.2821 55.1693 44.3974 54.5162C44.311 53.8631 44.3686 53.21 44.3974 52.5732C44.1381 51.9364 44.7719 51.2997 44.3974 50.6629C44.0517 50.0261 44.7719 49.4057 44.4262 48.7852C44.1957 48.1648 44.0517 47.5607 44.455 46.9565C44.455 46.3524 45.204 45.7483 44.5126 45.1605C44.3398 44.5727 43.4179 43.9849 44.5702 43.4135C44.2821 42.842 45.1176 42.2705 44.6279 41.7154C45.4921 41.1603 44.6855 40.6215 44.7143 40.0826C44.8871 39.5438 45.1752 39.0214 44.8007 38.5152C44.3974 37.9927 45.0312 37.4866 44.8871 36.9967C44.3974 36.5069 45.5209 36.0171 44.9736 35.5436C45.0888 35.0701 44.8871 34.6129 45.06 34.1721C43.9076 33.7149 45.06 33.2904 45.1752 32.8659C45.3481 32.4413 44.4262 32.0332 45.2904 31.6413C44.4262 31.2494 45.1752 30.8576 45.4057 30.482C45.665 30.1065 45.0312 29.7473 45.5209 29.4207C44.9159 29.0779 45.8666 28.7513 45.6361 28.4411C46.0395 28.1309 45.6361 27.837 45.7802 27.5431C45.6361 27.2655 45.6938 26.9879 45.9242 26.743C45.9819 26.4981 46.0107 26.2532 46.0683 26.0409C46.3564 24.7347 46.6444 24 46.9901 24H46.9613Z" fill="#EA2728"/>
<path d="M89.7949 19C90.073 19 90.3259 20.1921 90.7052 22.3721C90.7558 22.7297 90.8316 23.1214 90.8822 23.5472C90.9834 23.9559 91.0845 24.3987 91.0845 24.8755C90.7558 25.3524 91.8431 25.8293 91.2868 26.3742C91.1604 26.9022 91.3374 27.4472 91.4891 28.0092C91.6408 28.5712 91.3121 29.1843 91.6914 29.7974C92.45 30.4105 90.9328 31.0747 91.8431 31.7218C92.0454 32.386 92.0201 33.0843 91.9443 33.7996C91.388 34.5148 91.919 35.2472 91.9695 36.0135C91.2615 36.7629 91.4891 37.5293 91.8684 38.3638C91.3627 38.7384 91.1351 39.1301 91.1098 39.5389C91.0845 39.9476 91.2615 40.3734 91.6155 40.8332C91.4638 41.6847 90.9581 42.5022 91.0845 43.4218C91.0339 43.6432 91.0086 43.8646 90.9581 44.086C90.9075 44.3074 90.8316 44.5288 90.7811 44.7502C90.7052 44.9716 90.6546 45.21 90.5535 45.4314C90.4523 45.6528 90.3512 45.8742 90.1995 46.0956C90.3006 46.6066 90.25 47.1004 89.9719 47.5603C89.8454 47.7987 89.6937 48.0201 89.5167 48.2245C89.3397 48.4459 89.0615 48.6332 88.8087 48.8376C88.8087 49.11 88.7581 49.3655 88.6569 49.621C88.5558 49.8764 88.3788 50.0978 88.1765 50.3192C87.9742 50.5406 87.7719 50.762 87.519 50.9664C87.2662 51.1707 86.9627 51.3581 86.6846 51.5454C86.1282 51.9201 85.7489 52.3799 85.3443 52.8568C85.2432 52.976 85.142 53.0952 85.0156 53.2144C84.8892 53.3166 84.7627 53.4358 84.611 53.521C84.3329 53.7253 84.0041 53.8956 83.6248 54.0319C83.3214 54.2192 82.9926 54.3895 82.6892 54.5769C82.3605 54.7472 82.0823 54.9515 81.7283 55.1218C81.3743 55.2751 81.0455 55.4454 80.6915 55.5987L80.1605 55.8201C79.9835 55.8882 79.7812 55.9393 79.5789 55.9904C78.7444 56.1607 77.9605 56.331 77.1513 56.4843C76.7467 56.5694 76.3674 56.6716 75.9881 56.7908C75.6088 56.91 75.2295 57.0293 74.8502 57.1996C74.4456 57.2847 74.041 57.3869 73.6364 57.472C73.2318 57.5402 72.802 57.5913 72.3974 57.6424C71.9675 57.6935 71.5629 57.7275 71.133 57.7445C70.7031 57.7445 70.2733 57.7105 69.8687 57.6764C69.4641 57.8127 69.0342 57.8978 68.6043 57.9489C68.1744 58 67.8204 58 67.4158 58C66.6319 57.983 65.8227 57.8638 65.0388 57.7445C63.4457 57.8297 61.8274 57.4891 60.209 57.7445C58.5906 57.6764 56.947 57.9489 55.3033 57.7445C54.4688 57.6764 53.6597 57.6083 52.8505 57.5913C52.4459 57.5913 52.0413 57.5913 51.6367 57.6083C51.4344 57.6083 51.2321 57.6424 51.0298 57.6594C50.9287 57.6594 50.8528 57.6764 50.7011 57.6935C50.5241 57.6935 50.3218 57.7275 50.1448 57.7445C49.0827 57.8467 47.9954 57.8638 46.9586 57.8467C45.9218 57.8467 44.9609 57.7786 44 57.7445C44.354 57.1144 44.6828 56.5183 44.9103 55.9393C45.3402 55.4114 45.6184 54.9686 45.8712 54.5258C45.9977 54.3044 46.0988 54.083 46.1747 53.8616L46.3011 53.521C46.3011 53.521 46.3264 53.4358 46.3517 53.4017V53.2996C46.5287 52.7716 46.6299 52.2437 46.9839 51.7668C47.4138 50.745 48.3241 49.8594 48.4758 48.8035C48.8551 47.7987 49.2344 46.7939 49.993 45.8913C49.5632 44.6991 51.2827 44.052 51.5861 43.0642C52.0666 42.6555 52.3447 42.1956 52.5723 41.7188C52.8252 41.2419 52.9769 40.7651 53.3562 40.3393C53.5838 39.8624 54.0137 39.4537 54.393 39.045C54.7723 38.6362 55.1769 38.2275 55.3539 37.7507C55.7585 37.3419 56.0366 36.8991 56.3401 36.4734C56.6941 36.0646 57.0987 35.6729 57.655 35.3493C57.832 34.8725 58.3125 34.5148 58.8688 34.2253C59.3998 33.9188 59.9308 33.6293 60.209 33.2035C60.6136 32.8459 61.0688 32.5393 61.5239 32.2157C61.9791 31.9092 62.4343 31.6026 62.9147 31.3131C63.6228 31.1939 64.1285 30.9384 64.5078 30.6148C64.9124 30.3083 65.2411 29.9336 65.671 29.6611C66.1262 29.4057 66.5055 29.0991 66.9354 28.8266C67.34 28.5541 67.7951 28.2987 68.402 28.1965C68.8572 27.9751 69.3376 27.7878 69.8181 27.5834C70.2733 27.3961 70.7031 27.1747 71.0319 26.8681C71.8158 26.3742 73.3836 26.6297 73.5353 25.659C74.218 25.1651 75.5835 25.3183 75.9123 24.569C76.2663 23.8537 77.4295 23.8878 78.1122 23.5642C78.8203 23.2576 79.5283 22.9511 80.1605 22.6786C83.1191 21.4013 85.4708 20.4476 87.1144 19.8345C88.7581 19.2214 89.6937 18.9489 89.8202 19.0681C89.9466 19.2044 89.0615 19.8004 87.3167 20.8052C85.5466 21.793 82.9168 23.2066 79.5789 24.9607C78.9214 25.3183 78.5421 25.9655 77.5054 26.0677C76.772 26.4253 76.241 27.0384 75.2801 27.2598C74.9514 28.0432 73.7882 28.1454 72.9537 28.5541C72.5491 28.7755 72.1192 28.9629 71.664 29.1843C71.2342 29.4057 70.8296 29.6441 70.5008 29.9507C70.2227 30.2913 69.7675 30.5127 69.2871 30.717C68.8066 30.9214 68.3261 31.1258 67.9974 31.4664C66.8848 31.7559 66.0503 32.352 65.5193 33.1013C64.963 33.2886 64.5584 33.5952 64.2044 33.9188C63.8503 34.2424 63.4963 34.583 63.1423 34.9066C61.8779 35.2642 61.3722 36.0987 60.9423 36.9162C60.6895 37.3079 60.3102 37.6485 59.9308 37.9891C59.5768 38.3467 59.2228 38.7214 58.9699 39.1301C58.1608 39.8284 57.9079 40.7651 57.1998 41.5485C57.0228 41.9913 56.8964 42.4852 56.6435 42.9109C56.3907 43.3537 56.0619 43.7624 55.6068 44.1712C55.3033 45.1249 54.6459 45.9935 54.1401 46.9301C53.9125 47.9349 53.1286 48.8205 52.6987 49.8083C52.3447 50.8131 51.0551 51.6135 51.2574 52.7716C51.0551 53.2825 50.7769 53.7764 50.4988 54.2703L50.3976 54.4406C50.3976 54.4406 50.3976 54.5087 50.3723 54.5258C50.3723 54.5598 50.3723 54.5939 50.3723 54.6109C50.3218 54.662 50.2459 54.7301 50.1953 54.7812C50.2965 54.8153 50.5493 54.8153 50.7264 54.7131C50.7264 54.7472 50.7264 54.7642 50.7516 54.7983C50.8022 54.8323 50.9287 54.8493 51.0298 54.8664C51.2321 54.9004 51.4344 54.9345 51.6367 54.9515C52.0413 54.9856 52.4459 54.9856 52.8505 54.9686C53.6597 54.9345 54.4941 54.8153 55.3033 54.7131C56.947 54.5769 58.5906 54.645 60.209 54.7131C61.8274 54.662 63.4457 54.6961 65.0388 54.7131C65.8227 54.645 66.6319 54.6961 67.4158 54.7472C67.7951 54.7642 68.225 54.7983 68.579 54.7983C68.933 54.7983 69.3123 54.7642 69.6664 54.7131C70.0204 54.645 70.3744 54.6279 70.7284 54.6279C71.0824 54.6109 71.4365 54.5939 71.7905 54.5939C72.1445 54.5939 72.4985 54.5939 72.8525 54.5598C73.1813 54.5087 73.5353 54.4406 73.8387 54.3384C74.1675 54.2533 74.4962 54.1852 74.7996 54.083C75.1031 53.9808 75.4065 53.8956 75.71 53.8105C76.3422 53.6742 76.9238 53.5039 77.6065 53.4188C77.7582 53.3677 77.9099 53.3336 78.0617 53.2825C78.2134 53.2314 78.3651 53.1803 78.4915 53.1463C78.795 53.0611 79.0984 52.976 79.4019 52.8908C79.7053 52.7886 79.9582 52.6524 80.1858 52.5162C80.4134 52.3629 80.6409 52.1926 80.7674 51.9712C80.9697 51.8009 81.1214 51.6135 81.2984 51.4262L81.5513 51.1537C81.6271 51.0686 81.703 50.9664 81.7789 50.8642C82.0823 50.4895 82.5122 50.217 83.2708 50.0297C83.3972 49.8253 83.549 49.655 83.7513 49.4847C83.9283 49.3144 84.1306 49.1271 84.3329 48.9738C84.5352 48.8035 84.7122 48.6332 84.8639 48.4288C84.9903 48.2245 85.0915 48.0201 85.1168 47.7987C85.4202 47.6454 85.6478 47.4921 85.7742 47.2878C85.9259 47.1004 86.0018 46.879 86.0777 46.6747C86.2294 46.2489 86.2547 45.8061 86.4317 45.4144C86.5581 45.2271 86.6846 45.0227 86.811 44.8354C86.9121 44.631 87.0133 44.4437 87.1144 44.2393C87.2156 44.0349 87.2914 43.8306 87.342 43.6262C87.3926 43.4218 87.3926 43.2004 87.3673 42.9961C87.2662 42.1445 87.9489 41.3952 87.9995 40.5948C87.8478 40.186 88.0501 39.7943 88.2524 39.4197C88.4294 39.0279 88.6064 38.6533 88.4041 38.2616C88.5052 37.8869 88.5052 37.4952 88.5305 37.1205C88.5305 36.7459 88.5811 36.3712 88.6569 36.0135C87.696 35.2642 88.7328 34.5659 88.8087 33.8677C88.9604 33.1694 88.1512 32.4882 88.9098 31.841C88.1259 31.1939 88.7834 30.5467 88.9604 29.9336C89.1627 29.3205 88.5811 28.7415 88.9604 28.1624C88.4041 27.6004 89.188 27.0384 88.9604 26.5275C89.2891 25.9996 88.9098 25.5057 88.9604 25.0288C88.8087 24.552 88.834 24.1092 89.011 23.6834C89.011 23.2576 89.0363 22.8659 89.0615 22.5083C89.188 20.2943 89.4661 19.1022 89.7443 19.1022L89.7949 19Z" fill="#EA2728"/>
<path d="M2.83401 40.0626C3.12097 40.0626 3.40793 41.2748 3.53837 43.4773C3.53837 43.8529 3.59054 44.2456 3.59054 44.6724C3.64272 45.0992 3.69489 45.5431 3.64272 46.0212C3.22532 46.4821 4.2949 47.0114 3.64272 47.5236C3.43402 48.0358 3.56446 48.5992 3.64272 49.1626C3.74707 49.7431 3.35576 50.3236 3.64272 50.9382C4.37317 51.5699 2.78184 52.1846 3.69489 52.8504C3.90359 53.5163 3.82533 54.1821 3.79924 54.8821C3.22532 55.5821 3.79924 56.2992 3.95577 57.0334C3.30358 57.7846 3.66881 58.5358 4.21664 59.287C3.79924 59.6968 3.64272 60.1065 3.72098 60.4992C3.82533 60.8919 4.13838 61.2675 4.63404 61.6431C4.81665 62.4285 4.63404 63.2821 5.28622 64.0504C5.36449 64.2553 5.44275 64.4602 5.52101 64.648C5.62536 64.8529 5.70362 65.0407 5.80797 65.2455C5.88623 65.4504 5.9645 65.6553 6.04276 65.8602C6.12102 66.0651 6.19928 66.2699 6.25146 66.4748C6.74712 66.8333 7.06017 67.1919 7.29495 67.5846C7.3993 67.7894 7.47756 67.9943 7.52974 68.1992C7.58191 68.4212 7.63409 68.626 7.63409 68.8651C7.92105 69.0187 8.15584 69.1894 8.33845 69.3602C8.54715 69.5309 8.70367 69.7016 8.8602 69.8894C8.99063 70.0772 9.09498 70.2821 9.22542 70.487C9.35586 70.6919 9.46021 70.8968 9.56456 71.1016C9.74717 71.5455 10.295 71.8187 10.8167 72.0919L11.182 72.3138C11.3124 72.3821 11.4428 72.4504 11.5472 72.5187C11.782 72.6724 11.9907 72.826 12.1211 73.048C12.3559 73.2016 12.6168 73.3211 12.8777 73.4577C13.1385 73.5772 13.3994 73.7309 13.6864 73.8333C13.9733 73.9358 14.2603 74.0553 14.5472 74.1748C14.6777 74.226 14.8342 74.2943 14.9646 74.3626C15.0951 74.4309 15.2516 74.465 15.4081 74.5333C15.956 74.8065 16.5038 75.1138 17.156 75.2675C17.469 75.3529 17.8082 75.4211 18.1734 75.4724C18.5386 75.5065 18.9038 75.4724 19.2951 75.4382C19.6604 75.4724 19.9995 75.4894 20.3647 75.5236C20.73 75.5236 21.0952 75.5236 21.4604 75.5577C21.8256 75.5748 22.1648 75.6089 22.53 75.6602C22.8952 75.6943 23.2604 75.7285 23.6257 75.7968C24.017 75.6943 24.3822 75.626 24.7474 75.5919C25.1126 75.5577 25.5561 75.5407 25.9474 75.5577C26.7561 75.5748 27.5909 75.6943 28.3996 75.8138C30.0432 75.7285 31.7127 76.0699 33.3823 75.8138C35.0519 75.8821 36.7476 75.6089 38.4433 75.8138C39.3042 75.8821 40.139 75.9504 40.9738 75.9675C41.3912 75.9675 41.8086 75.9675 42.226 75.9504C42.4347 75.9504 42.6434 75.9163 42.8521 75.8992C42.9564 75.8992 43.0868 75.8821 43.139 75.865C43.139 75.865 43.1651 75.8309 43.1912 75.8138C43.2434 75.7114 43.2434 75.6943 43.3216 75.7114C43.3738 75.7114 43.5303 75.7797 43.6869 75.8138C43.739 75.8138 43.739 75.7455 43.6347 75.6772C43.8173 75.6772 43.8695 75.626 43.8434 75.5577C43.8434 75.5236 43.8173 75.4894 43.7912 75.4724C43.7912 75.4724 43.7651 75.4382 43.739 75.4382C43.739 75.4382 43.6869 75.387 43.6869 75.3699L43.6086 75.2846C43.2434 74.8065 42.8521 74.3285 42.6955 73.7992C42.1216 72.809 42.0433 71.7333 41.2085 70.8285C40.5825 69.8724 39.9564 68.9504 39.7216 67.9431C38.2346 67.2431 38.9129 66.0309 38.2085 65.1772C38.1302 64.6821 37.8433 64.2382 37.5041 63.8114C37.3476 63.6065 37.165 63.3846 37.0085 63.1797C36.9302 63.0772 36.852 62.9748 36.7737 62.8553C36.6954 62.7529 36.6172 62.6504 36.565 62.5309C36.1737 62.1382 35.9911 61.6943 35.7563 61.2675C35.5476 60.8236 35.2606 60.4138 34.7389 60.1065C34.4519 59.7138 34.0345 59.3553 33.6693 58.9968C33.2519 58.6553 32.8867 58.3138 32.678 57.887C32.1041 57.6309 31.8432 57.2382 31.5301 56.8797C31.2432 56.5041 30.9301 56.1114 30.4084 55.8724C30.0431 55.548 29.5736 55.2577 29.1562 54.9675C28.7388 54.6773 28.3214 54.3699 27.9301 54.0626C27.7996 53.5846 27.3561 53.3114 26.8605 53.0724C26.3648 52.8334 25.817 52.6626 25.3474 52.4236C24.9561 52.1334 24.4344 51.9455 23.9387 51.7407C23.4691 51.5358 23.0256 51.2968 22.7648 50.9212C22.3474 50.6651 22.0082 50.3919 21.6169 50.1358C21.2256 49.8968 20.7821 49.6577 20.2604 49.5382C19.3473 49.1797 19.2951 48.087 17.8603 48.2407C16.9212 47.9504 16.7386 47.0285 15.5647 47.0456C14.4168 47.0456 14.1298 46.2943 13.4255 45.9358C12.7472 45.5773 12.0689 45.2529 11.4428 44.9285C8.62541 43.4773 6.40798 42.3163 4.921 41.4797C3.46011 40.6431 2.72966 40.148 2.83401 40.0285C2.96445 39.8919 4.13838 40.2504 6.22537 41.0187C8.31236 41.787 11.2602 42.9821 14.9386 44.5358C15.669 44.8602 16.7386 44.9114 17.2342 45.5431C17.9908 45.9187 19.0604 46.0553 19.6865 46.6358C20.9387 46.6358 21.4343 47.4041 22.2691 47.848C22.7126 48.0529 23.13 48.309 23.5474 48.5309C23.9648 48.7699 24.4344 49.009 24.9561 49.1797C25.53 49.3163 25.9735 49.5895 26.3648 49.8797C26.7822 50.1699 27.1996 50.4602 27.7475 50.6651C28.3475 51.4504 29.3649 51.9114 30.591 52.3212C30.8779 52.7309 31.3475 53.0382 31.8693 53.3114C32.391 53.6016 32.9649 53.8407 33.3823 54.2163C33.6954 55.2065 35.0258 55.6675 36.0172 56.3675C36.5389 56.709 36.9041 57.1187 37.2954 57.5114C37.6346 57.9382 37.9476 58.3651 38.3911 58.7577C39.0433 59.6285 39.9042 60.4309 40.4781 61.3699C40.6085 61.4724 40.7129 61.5748 40.8172 61.6773C40.9216 61.7797 41.0259 61.8821 41.1303 62.0016C41.3129 62.2065 41.4955 62.4285 41.652 62.6675C41.9651 63.1285 42.1999 63.6065 42.3042 64.1187C43.0347 65.0065 43.426 65.9968 43.9477 66.9529C44.7043 67.8577 44.9391 68.8992 45.513 69.8724C46.1391 70.8285 45.826 72.0065 47.0521 72.8431C47.3391 73.3382 47.5739 73.8504 47.8087 74.3626L48.0695 74.926L48.4087 75.6431C48.6435 76.1211 48.9043 76.5821 49.1913 77.0772C49.4522 77.6577 49.7391 78.2553 50 78.8528C47.8348 78.8187 45.826 78.8187 43.7129 78.9211C43.5042 78.887 43.3216 78.8699 43.1129 78.8358C42.9564 78.8187 42.8781 78.7846 42.7738 78.7675C42.5651 78.7333 42.3564 78.6992 42.1477 78.6821C41.7303 78.648 41.3129 78.648 40.8955 78.665C40.0607 78.6992 39.1998 78.8187 38.365 78.9211C36.6693 79.0577 34.9737 78.9894 33.3041 78.9211C31.6345 78.9724 29.9649 78.9382 28.3214 78.9211C27.4866 78.9894 26.6779 78.9382 25.8692 78.887C25.4518 78.8528 25.0605 78.8529 24.6431 78.8358C24.1996 78.8358 23.7822 78.8358 23.3387 78.8699C22.8952 78.9041 22.4517 78.9041 22.0343 78.8699C21.5908 78.8187 21.1734 78.7675 20.73 78.6992C20.3126 78.6309 19.8691 78.5626 19.4517 78.5114C19.0343 78.4431 18.5908 78.3748 18.1473 78.3748C17.7038 78.3407 17.2603 78.3236 16.8429 78.2553C16.4255 78.187 15.9821 78.1016 15.5647 77.9992C14.7038 77.8285 13.9472 77.5211 13.2429 77.1626C13.0342 77.0943 12.8516 77.0431 12.669 76.9577C12.4863 76.8724 12.3298 76.787 12.1472 76.6846C11.8081 76.4968 11.495 76.326 11.1559 76.1382C10.8168 75.9675 10.5298 75.7626 10.1907 75.609C9.85152 75.4382 9.46021 75.3187 9.04281 75.1992C8.72976 75.0285 8.36454 74.8577 7.99931 74.7041C7.8167 74.6187 7.63409 74.5333 7.47756 74.465C7.29495 74.3797 7.16452 74.2772 7.00799 74.1919C6.40798 73.7992 5.88623 73.3553 5.91232 72.7065C5.62536 72.5016 5.41666 72.2968 5.20796 72.0577C5.02535 71.8187 4.89491 71.5797 4.76448 71.3407C4.63404 71.1016 4.47752 70.8626 4.32099 70.6407C4.16447 70.4187 3.98185 70.1968 3.72098 69.9919C3.74707 69.7187 3.66881 69.4626 3.59054 69.2236C3.51228 68.9846 3.35576 68.7626 3.19923 68.5407C2.8601 68.1138 2.49487 67.687 2.31226 67.226C2.26009 66.987 2.18183 66.7651 2.12965 66.526C2.07748 66.287 2.0253 66.0651 1.97313 65.8431C1.92095 65.6212 1.84269 65.3992 1.73834 65.1772C1.66008 64.9553 1.55573 64.7504 1.3992 64.5285C0.773107 63.6919 1.16442 62.7699 0.851369 61.9333C0.564407 61.5236 0.64267 61.0968 0.694844 60.687C0.773107 60.2602 0.851369 59.8504 0.564407 59.4577C0.564407 59.048 0.512233 58.6553 0.486145 58.2626C0.460058 57.8699 0.407883 57.4773 0.486145 57.1016C-0.583437 56.3675 0.433971 55.5992 0.512233 54.8821C0.64267 54.1651 -0.166039 53.4651 0.616582 52.7992C-0.139952 52.1163 0.53832 51.4846 0.773107 50.8699C1.03398 50.2553 0.486145 49.6407 0.981806 49.0773C0.460058 48.4968 1.34703 47.9675 1.1905 47.4382C1.58182 46.926 1.26877 46.4138 1.3992 45.9358C1.29485 45.4577 1.3992 45.0139 1.6079 44.6041C1.68616 44.1773 1.73834 43.8017 1.79051 43.426C2.15574 41.2407 2.41661 40.0456 2.72966 40.0456L2.83401 40.0626Z" fill="#EA2728"/>
<path d="M2.80792 0.0444115C3.09488 0.0444115 3.38185 1.22604 3.51228 3.37295C3.51228 3.73908 3.56446 4.12187 3.56446 4.52129C3.61663 4.93736 3.66881 5.37007 3.61663 5.83606C3.19923 6.28541 4.26882 6.80134 3.61663 7.30062C3.40793 7.7999 3.53837 8.3491 3.61663 8.89831C3.72098 9.46416 3.32967 10.03 3.61663 10.6292C4.32099 11.2449 2.75575 11.8441 3.66881 12.4931C3.87751 13.1422 3.79924 13.7913 3.77316 14.4736C3.19923 15.156 3.77316 15.8549 3.92968 16.5706C3.2775 17.3029 3.64272 18.0351 4.19055 18.7674C3.77316 19.1668 3.61663 19.5496 3.69489 19.949C3.79924 20.3318 4.11229 20.698 4.60795 21.0641C4.79056 21.8297 4.60795 22.6618 5.26014 23.4107C5.3384 23.6104 5.41666 23.8101 5.49492 23.9932C5.59927 24.1929 5.67754 24.376 5.78189 24.5757C5.86015 24.7754 5.93841 24.9751 6.01667 25.1748C6.09493 25.3746 6.1732 25.5743 6.22537 25.774C6.69494 26.1235 7.03408 26.473 7.26887 26.8558C7.37322 27.0555 7.45148 27.2552 7.50365 27.4549C7.55583 27.6712 7.608 27.871 7.608 28.104C7.89496 28.2537 8.12975 28.4035 8.31236 28.5866C8.52106 28.753 8.67758 28.9194 8.83411 29.1192C8.99063 29.3022 9.09498 29.5019 9.19933 29.7017C9.32977 29.9014 9.43412 30.1011 9.53847 30.3008C9.72108 30.7335 10.2689 30.9998 10.7907 31.2661L11.1559 31.4658C11.2863 31.5323 11.4168 31.5989 11.5472 31.6655C11.782 31.8153 11.9907 31.9817 12.1211 32.1981C12.3559 32.3478 12.6168 32.4643 12.8777 32.5975C13.1385 32.714 13.3994 32.8638 13.6864 32.9636C13.9733 33.0635 14.2603 33.18 14.5472 33.2798C14.6777 33.3298 14.8342 33.3963 14.9646 33.4629C15.0951 33.5295 15.2516 33.5627 15.4081 33.6293C15.956 33.8956 16.5038 34.1952 17.156 34.345C17.4951 34.4282 17.8082 34.4947 18.1734 34.5447C18.5125 34.578 18.9038 34.5447 19.2952 34.5114C19.6343 34.5447 19.9995 34.5613 20.3647 34.5946C20.73 34.5946 21.0952 34.5946 21.4343 34.6279C21.7995 34.6445 22.1387 34.6778 22.5039 34.7277C22.8691 34.761 23.2343 34.7943 23.5996 34.8609C23.9909 34.761 24.3561 34.6945 24.7213 34.6612C25.0866 34.6279 25.53 34.6112 25.9213 34.6279C26.7301 34.6445 27.5649 34.761 28.3736 34.8775C30.0171 34.8109 31.6867 35.1272 33.3563 34.8775C35.0258 34.9441 36.7215 34.6778 38.4172 34.8775C39.2781 34.9441 40.1129 35.0107 40.9477 35.0273C41.3651 35.0273 41.7825 35.0273 42.1999 35.0107C42.4086 35.0107 42.6173 34.9774 42.826 34.9607C42.9303 34.9607 43.0608 34.9441 43.1129 34.9274C43.1129 34.9274 43.139 34.8942 43.1651 34.8775C43.2173 34.7777 43.2173 34.761 43.2955 34.7777C43.3477 34.7943 43.5042 34.8442 43.6608 34.8775C43.7129 34.8775 43.7129 34.8109 43.6086 34.7444C43.7912 34.7444 43.8434 34.6945 43.8173 34.6445C43.8173 34.6112 43.7912 34.578 43.7651 34.5613C43.7651 34.5613 43.739 34.528 43.7129 34.528C43.7129 34.528 43.6869 34.4947 43.6608 34.4615L43.5825 34.3782C43.2173 33.9122 42.826 33.4463 42.6694 32.9303C42.0955 31.9651 42.0173 30.9166 41.1825 30.0345C40.5564 29.1025 39.9303 28.2038 39.6955 27.2219C38.2085 26.5395 38.8868 25.3579 38.1824 24.5258C38.1042 24.0431 37.8172 23.6104 37.4781 23.211C37.1389 22.8116 36.7998 22.3955 36.5389 21.9795C36.1476 21.5967 35.965 21.164 35.7302 20.7479C35.5215 20.3152 35.2345 19.9158 34.7128 19.6162C34.4258 19.2334 34.0084 18.8839 33.6432 18.5344C33.2258 18.2016 32.8606 17.8687 32.6519 17.4526C32.078 17.203 31.8171 16.8202 31.504 16.4707C31.191 16.1046 30.904 15.7385 30.3823 15.4888C29.991 15.1726 29.5475 14.8897 29.1301 14.6067C28.7127 14.3238 28.2953 14.0243 27.9301 13.7247C27.7996 13.2587 27.3562 12.9924 26.8605 12.7594C26.3648 12.5264 25.817 12.36 25.3474 12.127C24.9561 11.8441 24.4344 11.661 23.9387 11.4613C23.443 11.2449 23.0256 11.0286 22.7648 10.6624C22.3474 10.4128 21.9822 10.1299 21.5908 9.89687C21.1995 9.64723 20.756 9.43088 20.2343 9.31438C19.3212 8.96488 19.2691 7.89975 17.8343 8.04954C16.9212 7.76661 16.7386 6.86791 15.5386 6.88455C14.3907 6.88455 14.1038 6.15227 13.3994 5.80278C12.7211 5.45328 12.0429 5.13707 11.4168 4.82086C8.59932 3.40623 6.38189 2.27453 4.89491 1.45904C3.48619 0.626905 2.75575 0.127625 2.88618 0.0277688C3.01662 -0.105373 4.19055 0.244124 6.27755 0.993044C8.36454 1.74196 11.3124 2.90695 14.9907 4.42143C15.7212 4.73764 16.7908 4.78757 17.2603 5.40335C18.0169 5.76949 19.0865 5.91927 19.7126 6.46848C20.9647 6.48513 21.4604 7.2174 22.2952 7.65011C22.7387 7.84982 23.1561 8.09946 23.5735 8.31582C23.9909 8.54882 24.4344 8.78181 24.9822 8.94824C25.5561 9.08138 25.9996 9.34766 26.3909 9.63059C26.8083 9.91352 27.2257 10.1964 27.7736 10.3962C28.3736 11.1617 29.391 11.6111 30.6171 12.0105C30.904 12.4099 31.3736 12.7095 31.8954 12.9758C32.4171 13.2587 32.991 13.4917 33.4084 13.8578C33.7215 14.8231 35.0258 15.2725 36.0433 15.9548C36.565 16.2877 36.9563 16.6871 37.3215 17.0699C37.6607 17.4859 37.9737 17.902 38.4172 18.2848C39.0694 19.1336 39.9303 19.9158 40.5042 20.8145C40.6346 20.9143 40.739 21.0142 40.8433 21.114C40.9477 21.2139 41.052 21.3137 41.1303 21.4302C41.3129 21.63 41.4955 21.8463 41.652 22.0793C41.9651 22.5287 42.1999 22.9947 42.3042 23.4939C43.0347 24.3594 43.426 25.3246 43.9477 26.2566C44.7043 27.1387 44.939 28.1539 45.513 29.1025C46.1391 30.0345 45.826 31.1828 47.0521 31.9983C47.3391 32.481 47.5739 32.9803 47.8087 33.4795L48.0695 34.0454L48.4087 34.7444C48.6435 35.2104 48.9043 35.6597 49.1913 36.1424C49.4522 36.7082 49.7391 37.2907 50 37.8566C47.8347 37.8233 45.826 37.8233 43.7129 37.9231C43.5042 37.8898 43.3216 37.8732 43.1129 37.8399C42.9564 37.8066 42.8781 37.79 42.7738 37.7733C42.5651 37.7401 42.3564 37.7068 42.1477 37.6901C41.7303 37.6568 41.3129 37.6568 40.8955 37.6735C40.0607 37.7068 39.1998 37.8233 38.365 37.9231C36.6694 38.0563 34.9737 37.9897 33.3041 37.9231C31.6345 37.9731 29.9649 37.9398 28.3214 37.9231C27.5127 37.9897 26.6779 37.9398 25.8692 37.8898C25.4518 37.8732 25.0605 37.8566 24.6431 37.8399C24.1996 37.8399 23.7822 37.8399 23.3387 37.8566C22.8952 37.8898 22.4517 37.8898 22.0343 37.8732C21.5908 37.8233 21.1734 37.7567 20.73 37.7068C20.3126 37.6402 19.8691 37.5736 19.4517 37.5237C19.0343 37.4571 18.5908 37.4072 18.1473 37.3906C17.7038 37.3573 17.2603 37.3406 16.8429 37.2741C16.3995 37.2075 15.9821 37.1243 15.5647 37.0244C14.7299 36.8746 13.9472 36.5584 13.2429 36.2089C13.0603 36.1424 12.8516 36.0924 12.669 36.0092C12.4863 35.926 12.3298 35.8428 12.1472 35.7429C11.8081 35.5599 11.495 35.3934 11.1559 35.2104C10.8168 35.0439 10.5298 34.8442 10.1907 34.6945C9.85152 34.528 9.46021 34.4115 9.04281 34.295C8.72976 34.1286 8.36454 33.9622 7.99931 33.8124C7.8167 33.7292 7.63409 33.6626 7.47756 33.5794C7.29495 33.4962 7.16452 33.3963 7.00799 33.3131C6.40798 32.9303 5.88623 32.4976 5.91232 31.8652C5.65145 31.6655 5.41666 31.4491 5.23405 31.2328C5.05144 30.9998 4.921 30.7668 4.79056 30.5338C4.66013 30.3008 4.5036 30.0678 4.34708 29.8514C4.19055 29.6351 4.00794 29.4187 3.74707 29.219C3.77316 28.9527 3.69489 28.7031 3.61663 28.4701C3.53837 28.2371 3.38185 28.0207 3.22532 27.8044C2.88618 27.3883 2.52096 26.9723 2.31226 26.5229C2.26009 26.2899 2.18183 26.0735 2.12965 25.8405C2.07748 25.6076 2.05139 25.3912 1.97313 25.1748C1.92095 24.9585 1.84269 24.7421 1.73834 24.5258C1.66008 24.3094 1.55573 24.1097 1.3992 23.8934C0.773107 23.0779 1.16442 22.1792 0.851369 21.3637C0.564408 20.9642 0.64267 20.5482 0.694844 20.1488C0.773107 19.7327 0.851369 19.3333 0.564408 18.9671C0.564408 18.5677 0.512233 18.1849 0.486145 17.8021C0.460058 17.4194 0.407883 17.0366 0.486145 16.6704C-0.583437 15.9548 0.433971 15.2059 0.512233 14.5069C0.64267 13.8079 -0.166039 13.1256 0.616582 12.4765C-0.139952 11.8108 0.53832 11.195 0.773107 10.5959C1.03398 9.99673 0.486145 9.39759 0.981806 8.84838C0.460058 8.28253 1.34703 7.76661 1.1905 7.25069C1.58182 6.75141 1.26877 6.25213 1.3992 5.80278C1.29485 5.33678 1.3992 4.90407 1.6079 4.50465C1.68617 4.10522 1.73834 3.72244 1.79051 3.3563C2.26009 1.2094 2.52096 0.0444115 2.80792 0.0444115Z" fill="#EA2728"/>
</svg>
