<svg width="74" height="141" viewBox="0 0 74 141" fill="none" xmlns="http://www.w3.org/2000/svg">
<g clip-path="url(#clip0_72_37)">
<path d="M67.2958 23.854C66.9669 23.8867 66.5621 22.0077 65.12 18.7728C64.9935 18.5113 64.8417 18.2336 64.7152 17.9395C64.5887 17.6454 64.4117 17.3513 64.2599 17.0572C63.9057 16.4527 63.4756 15.8319 63.1214 15.1456C63.0961 14.7699 62.7166 14.4594 62.3624 14.149C61.9829 13.8386 61.654 13.5281 61.6287 13.087C61.224 12.3354 60.5156 11.6329 59.706 10.9467C58.9217 10.2605 58.4158 9.37821 57.252 8.79002C56.8978 8.67566 56.6195 8.52861 56.4171 8.33255C56.2147 8.15283 56.0376 7.92409 55.8352 7.71169C55.6581 7.48296 55.4558 7.2869 55.2028 7.10717C54.9498 6.92745 54.6209 6.78041 54.1908 6.73139C52.9511 6.14321 51.7874 5.48968 50.4465 4.88516C49.384 4.00289 47.613 3.79049 46.0445 3.44738C44.7289 2.63046 42.8568 2.48342 41.0605 2.58145C39.4667 1.81355 37.4428 1.84622 35.6718 2.48342C33.8503 2.59779 31.877 2.59779 30.1819 3.25132C28.3857 3.69246 26.6906 4.32965 24.9197 4.93417C23.5535 5.94715 22.0609 6.73139 20.214 7.45028C19.2274 8.69199 17.7347 9.62328 16.2674 10.6853C15.8879 10.9467 15.6096 11.2571 15.3313 11.5675C15.0783 11.878 14.8759 12.2211 14.6735 12.5478C14.4711 12.891 14.294 13.2177 14.0411 13.5445C13.8134 13.8713 13.5604 14.198 13.2062 14.4921C12.2954 15.8319 11.7388 17.2696 11.0558 18.7074C10.2209 20.1125 9.48721 21.632 9.7655 23.2168C9.6896 23.9847 9.6643 24.8016 9.56311 25.6185C9.46191 26.4354 9.28482 27.236 8.98123 28.0366C9.41131 29.7195 8.82943 31.3533 8.17165 32.9871C8.01986 34.6536 7.23559 36.3038 7.36208 38.0193C6.98259 39.7022 7.10909 41.4341 6.52721 43.1332C6.04653 44.8324 5.54054 46.5316 5.69234 48.2471C5.76824 49.0967 5.59114 49.93 5.36345 50.7632L5.21165 51.3678C5.21165 51.3678 5.16106 51.4331 5.13576 51.4658C5.08516 51.5312 5.08516 51.6128 5.11046 51.6455C5.03456 51.7436 5.16106 51.7926 5.31285 51.8089C5.38875 51.8089 5.43935 51.8089 5.56584 51.8089C5.89473 51.8089 6.19832 51.7762 6.52721 51.7599C7.81747 51.6945 9.08242 51.5965 10.3727 51.6619C12.9279 51.6292 15.4325 51.9069 17.9118 51.6782C20.3911 51.5965 22.8705 51.5148 25.2992 51.7109C27.7279 51.0573 30.1313 51.8743 32.5094 51.7435C34.8876 52.0213 37.2151 51.7109 39.5173 51.7762C41.8195 51.6619 44.0964 52.0703 46.3228 51.8089C48.5491 51.8579 50.7501 51.5965 52.9005 51.8579C55.051 51.5312 57.1761 52.1357 59.2506 51.9069C61.3252 51.9069 63.3491 51.8906 65.3477 51.9559C66.3344 52.201 67.3211 52.2337 68.3077 52.1847C69.5474 52.1357 69.5727 52.0213 69.9269 52.005C70.0534 52.005 70.1799 52.005 70.2811 52.005C70.2052 51.8089 70.104 51.6128 70.0534 51.4821C70.0534 51.4495 70.0534 51.4168 70.0534 51.3841V51.2207L70.0281 51.041C70.0281 50.7959 70.0281 50.5509 70.1293 50.3058C70.0028 49.1458 70.1546 47.9857 69.6486 46.9237C69.345 45.8454 70.4329 44.6854 69.2185 43.7378C68.8643 42.7248 69.6739 41.6628 68.839 40.7478C68.0294 39.8329 68.6113 38.8689 68.4848 37.9703C68.3836 37.088 68.2824 36.2385 68.1812 35.4215C67.3211 28.102 67.0175 23.903 67.4222 23.8703C67.8776 23.8376 69.1679 28.9679 70.9894 37.8069C71.1665 38.6892 71.8749 39.5715 71.546 40.5681C71.6978 41.5321 72.2797 42.496 72.1532 43.5417C73.0387 44.522 72.6339 45.6167 72.7857 46.7113C73.0134 47.806 72.9628 48.9497 73.4435 50.077C73.5699 50.3058 73.6458 50.5508 73.6964 50.7959L73.747 50.9757V51.188C73.7976 51.4004 73.8229 51.5965 73.8482 51.8089C73.9494 52.6422 73.9747 53.4101 74.1265 54.2433C73.5952 54.2433 73.064 54.2597 72.558 54.2923C71.6725 54.227 70.8882 54.178 70.104 54.1453L69.092 54.1126C68.839 54.1126 68.6113 54.1126 68.3583 54.1126C67.397 54.1126 66.4103 54.2106 65.3983 54.3414C63.3997 54.0636 61.3758 54.4067 59.3012 54.3904C57.2267 53.9492 55.1016 54.2597 52.9511 54.4394C50.8007 54.6028 48.5997 54.374 46.3734 54.4721C44.147 54.3904 41.8701 54.5864 39.5679 54.5047C37.2657 54.7008 34.9382 54.7825 32.56 54.5374C30.1819 54.6845 27.7785 54.5701 25.3498 54.5701C22.9211 54.7498 20.467 54.5537 17.9624 54.5864C15.4831 54.6845 12.9532 54.1289 10.4233 54.6028C9.15832 54.6354 7.86806 54.6028 6.57781 54.6028H5.61644H3.8455C2.65644 54.6028 1.44208 54.6028 0.177124 54.6354H0.0759277C0.328919 53.263 0.60721 51.8906 0.860201 50.5018C1.012 49.6686 1.11319 48.8353 1.16379 47.9857C2.17576 46.3356 1.99866 44.6037 1.99866 42.8718C2.07456 41.14 2.45405 39.4408 2.85883 37.7579C3.06123 36.0587 3.39012 34.3759 3.69371 32.7257C3.7443 31.0429 4.55388 29.4254 4.52858 27.7752C4.52858 26.9419 4.73097 26.1414 4.93336 25.3408C5.16106 24.5402 5.36345 23.756 5.36345 22.9064C5.46465 21.2398 5.84413 19.5733 6.8308 18.0539C7.46328 16.4527 8.88003 15.0803 9.25952 13.4628C9.48721 13.087 9.6643 12.6949 9.8414 12.3191C10.0438 11.9433 10.2462 11.5512 10.4739 11.1754C10.7269 10.7996 11.0052 10.4565 11.3846 10.1298C11.7641 9.81934 12.1942 9.50891 12.7508 9.28017C13.3074 8.57763 14.117 7.97311 14.9518 7.4176C15.3566 7.13985 15.7867 6.84576 16.1915 6.56801C16.3939 6.42096 16.5963 6.27392 16.7734 6.12687C16.9758 5.97983 17.1529 5.81644 17.3299 5.6694C18.4178 5.29362 19.3033 4.80347 20.1382 4.28064C20.5682 4.01922 20.9983 3.77415 21.4284 3.51274C21.8838 3.26766 22.3392 3.03892 22.8199 2.84286C24.8691 2.12398 26.9942 1.65016 28.9929 0.980292C29.4988 0.816908 30.0301 0.686201 30.5614 0.588171C31.0927 0.506479 31.6493 0.424788 32.1805 0.392111C32.7371 0.359434 33.2684 0.310419 33.7997 0.294081C34.078 0.294081 34.331 0.261404 34.6093 0.245066C34.8876 0.245066 35.1405 0.212389 35.4188 0.196051C36.4814 -9.574e-06 37.544 0.0980205 38.5812 0.196051C39.1125 0.245066 39.6185 0.326757 40.1245 0.359434C40.6305 0.408449 41.1364 0.441126 41.6677 0.408449C43.6411 0.686201 45.6144 0.947615 47.3347 1.50312C48.4226 1.43777 49.3081 1.71552 50.067 2.07496C50.8513 2.4344 51.4838 2.89188 52.2175 3.23498C52.5717 3.41471 52.9511 3.56175 53.3306 3.7088C53.7101 3.85584 54.0896 4.00289 54.4691 4.14993C54.8233 4.31331 55.1775 4.4767 55.4811 4.67276C55.7846 4.86882 56.0376 5.11389 56.2147 5.37531C56.6448 5.47334 57.0243 5.62038 57.3532 5.78377C57.6821 5.96349 57.9604 6.15955 58.1881 6.37195C58.4158 6.58435 58.6435 6.81308 58.8458 7.04182C59.0482 7.27056 59.2253 7.49929 59.4277 7.71169C60.212 8.57763 61.5275 9.18214 61.8817 10.1134C62.4889 10.4075 62.7672 10.8323 62.9949 11.2571C63.2226 11.6819 63.3491 12.1067 63.7286 12.4662C63.8551 12.891 64.0828 13.2667 64.3611 13.6262C64.6394 13.9856 64.8923 14.3287 65.0694 14.6882C65.6007 15.358 65.9296 16.0443 66.0308 16.7305C66.1826 17.0572 66.2838 17.3677 66.385 17.6617C66.4862 17.9722 66.5874 18.2663 66.6886 18.544C67.7005 21.9587 67.5488 23.8703 67.3211 23.8703L67.2958 23.854Z" fill="#EA2728"/>
<path d="M31.2445 53.116C31.5228 53.116 31.801 55.191 32.054 58.9978C32.1046 59.635 32.1299 60.3212 32.1805 61.0401C32.2564 61.7753 32.3323 62.5432 32.307 63.3601C31.9275 64.177 32.9901 65.043 32.4082 65.9579C32.2564 66.8729 32.4082 67.8205 32.5094 68.8008C32.6359 69.7974 32.2817 70.8268 32.6106 71.9051C33.3443 72.9834 31.801 74.0944 32.7118 75.2381C32.9142 76.3981 32.8636 77.5745 32.813 78.7999C32.2564 80.0252 32.813 81.2833 32.9142 82.5904C32.2564 83.8811 32.5347 85.2208 32.9901 86.5769C32.0793 87.9494 32.2058 89.3381 33.066 90.7759C33.0913 92.2137 32.7371 93.6678 33.1419 95.1546C33.1925 96.6414 33.3696 98.1608 33.2178 99.713C33.825 101.265 33.7997 102.834 33.2937 104.451C33.9515 106.052 33.6985 107.686 33.3443 109.336C32.9648 110.986 33.9262 112.669 33.3949 114.368C33.3443 116.068 33.5467 117.8 33.4455 119.548C33.1672 121.296 32.8889 123.06 33.4708 124.858C33.6226 126.655 33.8503 128.452 33.4961 130.282C34.2045 132.112 33.8756 133.958 33.4961 135.821C33.5214 136.409 33.4961 136.997 33.4708 137.602V137.651V137.683V137.749V137.83C33.4708 137.83 33.3949 137.961 33.3949 138.026C33.4961 138.026 33.5973 138.026 33.7238 138.026C33.7744 138.026 33.825 138.026 33.8756 137.994H33.9009L34.078 137.961L34.4828 137.928C35.9501 137.961 37.4175 137.928 38.9101 137.879H40.0233L40.5798 137.847H40.7822C40.7822 137.847 40.934 137.863 41.1111 137.912C41.1111 137.912 41.2123 137.814 41.2629 137.716V137.683C41.2629 137.683 41.2629 137.683 41.2629 137.651V137.553L41.2882 137.193V136.474C41.3388 135.51 41.2882 134.563 41.0858 133.615C40.6304 131.72 41.2629 129.841 41.0858 127.978C41.7436 126.116 40.8834 124.27 41.0858 122.44C41.0352 120.61 41.4653 118.796 41.1111 117.015C40.9846 115.218 40.8581 113.454 41.1364 111.705C40.1245 109.957 41.3894 108.225 41.187 106.526C41.6171 104.827 41.1364 103.144 41.2376 101.478C41.0605 99.8273 41.693 98.1935 41.2882 96.5923C41.3641 94.9912 40.9593 93.4064 41.3388 91.8542C40.8328 90.3021 41.7689 88.7826 41.4147 87.2958C41.4147 85.809 41.3894 84.3386 41.4906 82.9171C42.2749 81.4794 41.6171 80.0906 41.5665 78.7182C41.6424 77.3458 41.1364 76.0224 41.6424 74.7316C41.7183 73.4409 42.0472 72.1665 41.7436 70.9411C41.6424 69.7157 42.8821 68.5231 41.8448 67.3794C41.6677 66.2357 42.6544 65.1247 41.946 64.0463C41.3135 62.968 42.0219 61.9387 42.0472 60.9421C42.0978 59.9454 42.1231 58.9978 42.1484 58.0992C42.199 57.1679 42.2243 56.2856 42.2749 55.436C42.2749 55.2236 42.2749 55.0112 42.3002 54.8152C42.3002 54.6845 42.3002 54.5374 42.3255 54.4067C42.3255 54.1453 42.3761 53.8839 42.3761 53.6225C41.7183 53.6061 41.0858 53.5735 40.5039 53.5571C39.6438 53.5244 38.8342 53.5081 38.0752 53.4918C36.5826 53.4428 35.3176 53.3937 34.2804 53.3447C32.2311 53.2467 31.1433 53.1487 31.1433 53.0343C31.1433 52.9199 32.2311 52.8219 34.2804 52.7239C35.3176 52.6748 36.5826 52.6258 38.0752 52.5768C38.8342 52.5605 39.6438 52.5278 40.5039 52.5115C41.6677 52.4951 42.9074 52.4624 44.1976 52.4461C44.2988 54.8315 44.4 57.6744 44.5518 60.9421C44.5771 61.9387 45.1337 62.968 44.653 64.0463C44.653 65.1247 45.0831 66.2357 44.7542 67.3794C45.4879 68.5394 44.8807 69.7157 44.8554 70.9411C44.8807 72.1665 44.653 73.4246 44.9566 74.7316C45.3867 76.0224 44.7542 77.3621 45.0325 78.7182C44.5771 80.0906 44.7036 81.4794 45.1084 82.9171C44.6783 84.3386 45.2096 85.809 45.1843 87.2958C44.5012 88.7826 44.9819 90.3021 45.2602 91.8542C45.5132 93.4064 45.159 94.9748 45.3108 96.5923C45.1843 98.1935 45.4879 99.8273 45.3614 101.478C45.665 103.128 45.7915 104.811 45.412 106.526C45.6144 108.225 45.4626 109.957 45.4626 111.705C45.7156 113.454 45.4373 115.218 45.4879 117.015C45.6144 118.812 44.7795 120.626 45.5132 122.44C45.6144 124.27 45.3867 126.116 45.5132 127.978C45.412 129.841 45.3108 131.72 45.5132 133.615C45.159 134.563 45.0831 135.51 45.1337 136.474C45.1337 136.719 45.159 136.948 45.2096 137.193L45.2602 137.553V137.651V137.798V138.124C45.3614 139.039 45.4373 139.954 45.5132 140.853C44.1723 140.886 42.7556 140.902 41.3135 140.918H39.8209H38.7077C37.2404 140.918 35.7477 140.869 34.2804 140.837H33.2684L31.7504 140.853C30.7385 140.853 29.7012 140.853 28.6892 140.853C28.6892 139.742 28.6892 138.647 28.6892 137.536C28.6892 136.948 28.7145 136.344 28.7398 135.755C28.5375 133.893 29.0434 132.047 28.7398 130.217C28.4363 128.387 29.0687 126.573 28.7651 124.792C28.5628 122.995 28.4363 121.231 28.7904 119.482C28.7904 117.734 29.4482 116.002 28.841 114.303C28.6892 112.604 27.8797 110.921 28.8916 109.271C28.6386 107.621 29.3723 105.987 28.9422 104.386C29.6759 102.785 28.9675 101.2 28.9928 99.6476C29.1446 98.0955 29.3976 96.576 29.0687 95.0892C28.7145 93.6024 29.2711 92.132 29.1446 90.7105C28.7145 89.2891 29.7012 87.884 29.2205 86.5116C29.3217 85.1392 29.1446 83.8157 29.2964 82.525C28.2845 81.2343 29.2964 79.9599 29.3976 78.7345C29.5494 77.5091 28.7398 76.3164 29.4988 75.1728C28.7398 74.0127 29.3976 72.9017 29.6 71.8397C29.8277 70.7614 29.2711 69.7321 29.7012 68.7354C29.1699 67.7388 30.0048 66.7912 29.8024 65.8926C30.1566 64.9776 29.8024 64.1117 29.9036 63.2948C29.7771 62.4779 29.8277 61.6936 30.0301 60.9747C30.0807 60.2395 30.106 59.5696 30.1566 58.9324C30.4096 55.1256 30.6626 53.0506 30.9662 53.0506L31.2445 53.116Z" fill="#EA2728"/>
<path d="M37.2909 33.3629C37.5692 33.3956 37.6704 33.9511 37.6198 34.9314C37.6198 35.0948 37.6198 35.2745 37.5945 35.4542C37.5945 35.6503 37.6198 35.8464 37.5439 36.0424C37.1138 36.2058 38.0752 36.5489 37.468 36.7123C37.2403 36.9247 37.3162 37.1698 37.3668 37.4312C37.4174 37.6926 36.9873 37.905 37.2403 38.2154C37.8728 38.5749 36.2789 38.6565 37.0885 39.065C37.1897 39.3754 37.0379 39.6695 36.9114 39.9636C36.2789 40.1924 36.709 40.5845 36.709 40.9276C35.95 41.1727 36.1524 41.5321 36.4813 41.9406C35.4693 42.1693 35.5199 42.5287 36.2283 43.0026C36.1524 43.362 35.697 43.6888 35.9753 44.1136C35.9247 44.4893 35.9753 44.8978 35.697 45.2572C36.1777 45.7147 36.0259 46.1068 35.3935 46.4499C35.9247 46.9401 35.5452 47.3159 35.0646 47.6917C34.5839 48.0511 35.3682 48.6066 34.7357 48.9661C34.5586 49.3908 34.6092 49.8483 34.3815 50.2731C34.1791 50.4692 33.9767 50.6816 33.8755 50.894C33.8249 51.0083 33.7996 51.1227 33.8249 51.2371C33.8249 51.2698 33.8249 51.3024 33.8249 51.3188C33.8249 51.3188 33.8502 51.3351 33.8755 51.3515C33.9261 51.3678 33.9767 51.3841 34.0526 51.4005C34.1285 51.4495 34.2044 51.4495 34.2297 51.4658C34.255 51.4658 34.2297 51.4985 34.002 51.6129C34.2297 51.5312 34.3815 51.4658 34.4321 51.4331C34.5839 51.3515 34.3056 51.4985 34.2297 51.6619C34.3056 51.6292 34.3056 51.6782 34.3815 51.7272C34.4068 51.7436 34.4321 51.7599 34.508 51.7599C34.6851 51.7599 34.8875 51.7272 35.0646 51.6619C35.7982 51.7272 36.5572 51.4658 37.3415 51.6619C38.1005 51.7926 38.8594 51.9233 39.6184 51.6619C39.8208 51.5965 39.9979 51.5638 40.175 51.5638C40.2256 51.5638 40.2256 51.5802 40.2509 51.6129C40.3015 51.6619 40.428 51.7436 40.4533 51.6782C40.6304 51.8253 40.7569 51.8579 40.7822 51.8253C40.8075 51.8089 40.7822 51.7272 40.7063 51.6946C40.6304 51.6292 40.6051 51.6129 40.681 51.6129C40.6304 51.5639 40.7316 51.5639 40.7822 51.5312C40.8328 51.4985 40.8328 51.4331 40.6557 51.4005H40.6051V51.3678C40.6051 51.3678 40.5798 51.3188 40.5545 51.3024C40.5039 51.1881 40.4533 51.09 40.4027 50.9757C40.3268 50.7469 40.3015 50.5345 40.3521 50.2895C39.2389 49.979 40.3521 49.3909 39.9979 48.9824C40.2762 48.5086 39.669 48.1491 39.669 47.708C39.3654 47.3159 39.8714 46.8257 39.3401 46.4826C39.3148 46.0742 38.7835 45.7311 39.0365 45.2899C38.4293 44.9632 39.2136 44.473 38.7582 44.1462C38.657 43.7705 38.5052 43.411 38.5052 43.0352C39.163 42.5778 38.4293 42.3163 38.2523 41.9732C38.2523 41.6138 37.6198 41.3524 38.0246 40.9603C37.9993 40.6335 38.227 40.274 37.8222 39.9963C37.6198 39.7022 38.7582 39.2447 37.6451 39.0977C37.3668 38.8363 38.2523 38.4278 37.4933 38.2481C36.7849 38.052 37.4174 37.7089 37.3668 37.4639C37.3415 37.2188 37.2909 36.9737 37.2656 36.745C36.962 34.6537 36.9873 33.4283 37.4174 33.3793C37.8728 33.3139 38.7582 34.719 39.8714 37.1534C39.9726 37.3985 40.6051 37.5946 40.2003 37.9213C40.2762 38.1827 40.7822 38.4115 40.5545 38.7382C41.3641 38.9343 40.8581 39.3101 40.934 39.6205C41.0605 39.9309 40.934 40.274 41.3135 40.5518C41.8194 40.8296 41.3135 41.238 41.6929 41.5484C41.364 41.9406 41.5917 42.2837 42.0977 42.5941C41.7688 43.0026 42.4013 43.313 42.5025 43.6888C41.9712 44.1462 42.5278 44.473 42.9073 44.8161C43.2615 45.1756 43.0338 45.6167 43.3374 45.9925C43.3374 46.4173 43.7422 46.7767 43.7675 47.2178C44.1976 47.5936 44.4505 48.0021 44.1976 48.4759C44.5517 48.868 44.5011 49.3255 44.6276 49.7666C44.83 49.9627 44.8806 50.1914 44.9312 50.4202L44.9818 50.7633V50.8613L45.0324 51.0083C45.0577 51.1064 45.1083 51.2207 45.1336 51.3188C45.336 51.7436 45.2854 52.152 45.2854 52.5278C45.2854 52.9199 45.3866 53.263 45.9432 53.8676C46.0444 54.129 46.1456 54.3904 46.1962 54.6355C45.2095 54.6355 44.1976 54.5701 43.2868 54.6355C42.5531 54.6028 41.87 54.5701 41.187 54.5701C40.8581 54.5701 40.5039 54.5701 40.175 54.5701C39.9979 54.5701 39.7955 54.6028 39.6184 54.6355C38.8847 54.1616 38.1258 54.4557 37.3415 54.6355C36.5825 54.7662 35.8235 54.7008 35.0646 54.6355C34.8622 54.6355 34.6851 54.6518 34.508 54.6681H33.4707C32.7623 54.6681 32.0793 54.6518 31.3962 54.6355C30.8649 54.6845 30.3589 54.6681 29.9288 54.6355C29.4735 54.6028 29.0687 54.5701 28.6133 54.5538C28.7145 54.2924 28.7651 54.0636 28.7398 53.8512C28.6892 53.4918 28.9169 53.0016 29.1446 52.5768C29.3723 52.1357 29.5746 51.7272 29.5493 51.3188C29.5493 51.2044 29.5493 51.1064 29.5493 50.992V50.8286C29.5493 50.8286 29.5493 50.7633 29.5493 50.7306C29.5493 50.6162 29.5493 50.5019 29.5999 50.3875C29.6505 50.1588 29.777 49.9464 30.03 49.7503C30.1565 49.3092 30.9408 48.9661 30.4601 48.4596C30.4601 48.0184 29.777 47.4956 30.8902 47.2015C30.7637 46.7604 31.6239 46.4336 31.3203 45.9761C32.1805 45.6657 31.5986 45.1756 31.7504 44.7998C32.0034 44.424 32.3829 44.0809 32.1805 43.6724C31.9528 43.2476 32.5852 42.9535 32.5852 42.5778C32.2817 42.1693 33.3442 41.9406 32.99 41.5321C33.1924 41.2053 33.1418 40.8459 33.3695 40.5355C32.484 40.078 33.5719 39.8983 33.749 39.6042C33.9767 39.3101 33.2683 38.918 34.1285 38.7219C33.4707 38.3461 34.2044 38.1501 34.4827 37.905C34.7863 37.6599 34.3309 37.3331 34.8369 37.1371C34.3815 36.8267 35.267 36.6796 35.1658 36.4345C35.5958 36.2548 35.3176 35.9934 35.4694 35.7973C35.4188 35.5849 35.5199 35.3889 35.7729 35.2255C35.8741 35.0458 35.95 34.8824 36.0512 34.719C36.5825 33.7877 37.0126 33.3139 37.2909 33.3466V33.3629Z" fill="#EA2728"/>
</g>
<defs>
<clipPath id="clip0_72_37">
<rect width="74" height="141" fill="white"/>
</clipPath>
</defs>
</svg>
